<svg width="287" height="132" viewBox="0 0 287 132" fill="none" xmlns="http://www.w3.org/2000/svg">
<path d="M98.0507 0.400001C98.424 0.186671 98.7973 0.240004 99.1706 0.560003C99.4373 0.826669 99.5706 1.09334 99.5706 1.36C99.5706 1.62667 99.3573 2.24 98.9306 3.2C97.224 6.61334 94.264 15.04 90.0507 28.48C87.544 36.32 85.9707 40.6133 85.3307 41.36C84.6907 42 84.1307 42.0267 83.6507 41.44C83.4906 41.2267 83.544 40.7467 83.8106 40C85.144 36.48 86.6906 31.9733 88.4506 26.48L90.2906 20.72L88.1306 16.72C85.5173 11.92 83.2507 8.37334 81.3307 6.08C80.584 5.22667 80.0507 4.82667 79.7307 4.88001C79.6773 4.88001 79.5973 4.88001 79.4906 4.88001L79.3307 4.96C78.744 4.96 78.4506 4.58667 78.4506 3.84001C78.4506 3.36001 78.584 2.90667 78.8506 2.48C79.1173 2.05334 79.4107 1.84 79.7307 1.84H79.9706C80.344 1.94667 81.144 2.69334 82.3707 4.08C83.6507 5.46667 84.6906 6.74667 85.4906 7.92C86.4506 9.30667 88.024 12.0267 90.2106 16.08L91.1706 17.76L91.4107 16.88C92.424 13.6267 93.6773 10.1333 95.1706 6.4C96.7173 2.66667 97.6773 0.666671 98.0507 0.400001Z" fill="#2B2D42"/>
<path d="M122.447 9.52C121.54 9.25334 120.82 9.12 120.287 9.12C119.967 9.12 119.754 9.17334 119.647 9.28C119.594 9.33334 119.594 9.49334 119.647 9.76C119.7 10.0267 119.647 10.2667 119.487 10.48C119.327 10.64 118.927 10.96 118.287 11.44C115.994 13.04 114.127 15.2 112.687 17.92C111.247 20.64 110.527 23.3067 110.527 25.92C110.527 26.6667 110.554 27.2267 110.607 27.6C111.194 31.12 112.82 33.5467 115.487 34.88C116.874 35.5733 118.367 35.92 119.967 35.92C122.634 35.92 125.38 34.8267 128.207 32.64C130.074 31.0933 131.54 29.3867 132.607 27.52C133.727 25.6 134.287 23.7333 134.287 21.92C134.287 21.6 134.234 21.12 134.127 20.48C133.7 18.08 132.367 15.84 130.127 13.76C127.887 11.68 125.327 10.2667 122.447 9.52ZM116.367 7.2C117.114 7.04 117.914 6.96 118.767 6.96C120.9 6.96 123.194 7.46667 125.647 8.48001C128.154 9.49334 130.287 10.8533 132.047 12.56C134.927 15.3867 136.367 18.4267 136.367 21.68C136.367 22.6933 136.26 23.6267 136.047 24.48C135.354 27.4667 133.78 30.24 131.327 32.8C128.927 35.3067 126.234 36.9333 123.247 37.68C122.394 37.8933 121.274 38 119.887 38C118.5 38 117.46 37.8933 116.767 37.68C114.154 36.9333 112.1 35.52 110.607 33.44C109.114 31.3067 108.367 28.8267 108.367 26V25.2C108.687 19.8667 111.007 15.1733 115.327 11.12L117.407 9.2L116.287 9.44C115.06 9.65334 114.447 9.36 114.447 8.56C114.447 8.02667 115.087 7.57334 116.367 7.2Z" fill="#2B2D42"/>
<path d="M157.248 10.48C157.728 10 158.234 10.0267 158.768 10.56C158.981 10.7733 159.088 11.36 159.088 12.32C159.088 12.48 159.061 12.88 159.008 13.52C159.008 14.1067 159.008 14.6133 159.008 15.04C158.688 25.1733 156.581 30.6667 152.688 31.52C152.154 31.6267 151.754 31.68 151.488 31.68C149.994 31.68 148.688 31.04 147.568 29.76C146.448 28.48 145.674 26.72 145.248 24.48C145.088 23.5733 145.008 22.5333 145.008 21.36C145.008 21.1467 145.008 20.72 145.008 20.08C145.061 19.44 145.088 18.9333 145.088 18.56C145.194 15.7333 145.301 14.2133 145.408 14C145.568 13.6267 145.834 13.3867 146.208 13.28C146.581 13.1733 146.901 13.2267 147.168 13.44C147.328 13.6 147.408 13.9733 147.408 14.56C147.408 14.72 147.381 14.9067 147.328 15.12C147.328 15.28 147.301 15.5467 147.248 15.92C147.248 16.2933 147.248 16.64 147.248 16.96C147.141 18.56 147.088 19.6533 147.088 20.24C147.088 23.7067 147.754 26.3467 149.088 28.16C149.834 29.1733 150.661 29.68 151.568 29.68C152.421 29.68 153.248 29.2 154.048 28.24C155.594 26.5867 156.501 22.32 156.768 15.44C156.928 12.3467 157.088 10.6933 157.248 10.48Z" fill="#2B2D42"/>
<path d="M171.422 10.88C173.769 8.64 176.355 7.52 179.182 7.52C180.835 7.52 182.222 7.94667 183.342 8.8C184.569 9.65334 185.929 11.5733 187.422 14.56C188.222 16.16 188.622 17.1467 188.622 17.52C188.622 17.68 188.595 17.8133 188.542 17.92C188.382 18.2933 188.089 18.48 187.662 18.48C187.342 18.48 187.102 18.4 186.942 18.24C186.782 18.0267 186.515 17.5467 186.142 16.8C184.862 14.0267 183.875 12.24 183.182 11.44C182.489 10.5867 181.502 10.0533 180.222 9.84C179.955 9.78667 179.582 9.76 179.102 9.76C177.449 9.76 175.822 10.2933 174.222 11.36C172.622 12.3733 171.529 13.6533 170.942 15.2L170.462 16.56L170.942 18.32C172.062 22.3733 172.729 25.36 172.942 27.28C173.475 31.6533 173.742 36.2933 173.742 41.2C173.742 42.32 173.715 43.0133 173.662 43.28C173.609 43.4933 173.449 43.7067 173.182 43.92C172.969 44.0267 172.782 44.08 172.622 44.08C172.462 44.08 172.329 44.08 172.222 44.08C172.169 44.0267 172.035 43.9467 171.822 43.84C171.662 43.7333 171.555 43.6533 171.502 43.6L171.422 36.88C171.422 35.8667 171.395 34.9333 171.342 34.08C171.289 33.1733 171.235 32.3733 171.182 31.68C171.182 30.9867 171.129 30.2667 171.022 29.52C170.969 28.7733 170.915 28.2133 170.862 27.84C170.809 27.4133 170.702 26.8533 170.542 26.16C170.435 25.4133 170.355 24.9067 170.302 24.64C170.302 24.3733 170.195 23.8667 169.982 23.12C169.769 22.32 169.635 21.8133 169.582 21.6C169.529 21.3333 169.369 20.7467 169.102 19.84C168.889 18.88 168.729 18.24 168.622 17.92C168.035 15.84 167.742 14.0533 167.742 12.56C167.742 11.12 167.902 9.94667 168.222 9.04C168.542 8.13334 168.915 7.68 169.342 7.68C169.662 7.68 169.929 7.84 170.142 8.16C170.409 8.42667 170.435 8.98667 170.222 9.84C169.955 10.5333 169.822 11.1467 169.822 11.68C169.822 12 169.875 12.16 169.982 12.16C170.195 12.0533 170.675 11.6267 171.422 10.88Z" fill="#2B2D42"/>
<path d="M57.7581 81.24C58.3981 81.08 58.8515 81.2933 59.1182 81.88C59.1182 81.9333 59.1182 81.96 59.1182 81.96L59.1982 82.12C59.1982 82.3333 58.7448 83.4267 57.8382 85.4C55.7582 89.6667 52.9048 94.8667 49.2781 101C45.5981 107.187 42.8248 111.213 40.9582 113.08C38.9315 115.107 37.1181 116.12 35.5182 116.12H35.0382C33.4382 116.067 32.1848 115.16 31.2782 113.4C30.6382 112.12 30.1848 110.493 29.9181 108.52C29.6515 106.493 29.4648 102.973 29.3581 97.96C29.2515 94.2267 29.1182 92.36 28.9582 92.36C28.7448 92.36 28.3448 93.0533 27.7582 94.44C27.1715 95.7733 26.6915 97 26.3182 98.12C25.7315 99.9333 25.0382 102.493 24.2382 105.8C22.6915 112.147 21.0115 116.653 19.1982 119.32C18.6648 120.12 17.9981 120.947 17.1981 121.8C16.3981 122.6 15.8915 123 15.6782 123C15.4115 123 14.9315 122.653 14.2382 121.96C13.5448 121.267 13.0115 120.6 12.6382 119.96C12.3182 119.48 11.2781 116.733 9.51815 111.72C8.87815 109.693 7.99815 107.133 6.87815 104.04C5.75815 100.947 4.82482 98.2267 4.07815 95.88C3.38482 93.5333 2.71815 90.92 2.07815 88.04C1.81148 86.4933 1.46482 85.3733 1.03815 84.68C0.664816 83.9333 0.478149 83.4533 0.478149 83.24C0.478149 82.92 0.664816 82.68 1.03815 82.52C1.41148 82.3067 1.75815 82.28 2.07815 82.44C2.93148 82.92 3.75815 85.16 4.55815 89.16C4.98482 90.9733 5.43815 92.76 5.91815 94.52C6.45148 96.28 6.93148 97.7733 7.35815 99C7.78482 100.227 8.37148 101.96 9.11815 104.2C9.91815 106.387 10.5848 108.253 11.1182 109.8C13.4648 116.733 14.9315 120.2 15.5182 120.2C15.7315 120.2 16.1848 119.72 16.8782 118.76C17.6248 117.747 18.2915 116.68 18.8782 115.56C19.8382 113.693 21.0115 110.013 22.3982 104.52C24.1048 97.5333 26.0248 92.6267 28.1582 89.8C28.8515 88.8933 29.3315 88.44 29.5982 88.44C29.8115 88.44 30.0248 88.5467 30.2381 88.76C30.6648 89.1867 30.9582 90.04 31.1182 91.32C31.2782 92.6 31.4115 95.16 31.5182 99C31.7315 105.613 32.1315 109.773 32.7182 111.48C33.3582 113.133 34.2382 113.987 35.3582 114.04C35.9448 114.04 36.6115 113.827 37.3582 113.4C39.3848 112.28 42.2382 108.6 45.9182 102.36C49.7582 95.9067 52.9315 90.2267 55.4382 85.32C56.7182 82.7067 57.4915 81.3467 57.7581 81.24Z" fill="#2B2D42"/>
<path d="M68.2963 71.4C68.6163 70.9733 69.0696 70.92 69.6563 71.24C70.0296 71.4 70.2429 71.9867 70.2963 73C70.9896 80.52 71.6563 86.8133 72.2963 91.88C72.3496 92.2533 72.5096 92.4933 72.7763 92.6C73.2029 92.7067 75.3363 92.92 79.1763 93.24C79.8696 93.2933 82.6963 93.56 87.6563 94.04C92.6696 94.4667 95.9229 94.7333 97.4163 94.84L99.9763 95V93.56C99.9763 90.8933 99.5763 85.72 98.7763 78.04C98.5096 75.2667 98.3763 73.6933 98.3763 73.32C98.3763 72.84 98.4296 72.5467 98.5363 72.44C98.6429 72.28 98.8563 72.2 99.1763 72.2C99.6029 72.2 99.9229 72.4133 100.136 72.84C100.35 73.2667 100.536 74.1733 100.696 75.56C101.71 85.5333 102.216 93.3467 102.216 99V102.6C102.056 110.12 101.47 115.8 100.456 119.64C100.19 120.707 99.7096 121.107 99.0163 120.84C98.5896 120.68 98.3763 120.28 98.3763 119.64C98.3763 119.32 98.5096 118.413 98.7763 116.92C99.5229 112.867 99.9763 108.013 100.136 102.36L100.296 97.24C99.4963 97.08 98.2429 96.9733 96.5363 96.92C96.1096 96.92 95.3363 96.8667 94.2163 96.76C93.0963 96.6533 91.6296 96.52 89.8163 96.36C88.0029 96.2 86.5096 96.0667 85.3363 95.96C79.7363 95.48 76.1629 95.24 74.6163 95.24C73.7096 95.24 73.1496 95.2933 72.9363 95.4C72.8296 95.4533 72.7763 95.6933 72.7763 96.12C72.7763 96.8133 72.8029 97.4533 72.8563 98.04C73.2829 102.413 73.4963 107.427 73.4963 113.08C73.4963 117.293 73.3629 119.587 73.0963 119.96C72.8829 120.173 72.6163 120.28 72.2963 120.28C71.6029 120.28 71.2563 119.773 71.2563 118.76C71.2563 118.653 71.2563 118.467 71.2563 118.2C71.3096 117.88 71.3363 117.64 71.3363 117.48C71.3363 117.373 71.3363 117.08 71.3363 116.6C71.3896 116.12 71.4163 115.693 71.4163 115.32C71.4163 109.08 71.1763 103.373 70.6963 98.2C70.6429 97.72 70.5363 96.68 70.3763 95.08C70.2163 93.4267 70.0296 91.6933 69.8163 89.88C69.6563 88.0133 69.4963 86.3333 69.3363 84.84C68.5363 77.3733 68.1363 73.1867 68.1363 72.28C68.1363 71.8 68.1896 71.5067 68.2963 71.4Z" fill="#2B2D42"/>
<path d="M111.593 66.2C111.753 65.9867 111.913 65.88 112.073 65.88C112.179 65.88 112.899 66.12 114.233 66.6C115.193 66.9733 116.873 67.16 119.273 67.16C121.939 67.16 124.179 67.08 125.993 66.92C127.433 66.76 129.193 66.68 131.273 66.68C135.433 66.68 138.446 66.8667 140.313 67.24C143.566 67.88 145.193 68.6 145.193 69.4C145.193 69.6667 145.033 69.9333 144.713 70.2C144.553 70.36 144.366 70.44 144.153 70.44C143.833 70.44 143.033 70.2533 141.753 69.88C139.033 69.1867 136.073 68.84 132.873 68.84C130.739 68.84 129.033 68.8933 127.753 69C124.926 69.16 122.366 69.24 120.073 69.24C117.139 69.24 115.193 69.1067 114.233 68.84C113.486 68.6267 113.059 68.5733 112.953 68.68C112.899 68.7333 112.873 69.24 112.873 70.2C112.873 73.3467 112.979 75.5067 113.193 76.68C113.779 79.1333 114.153 84.12 114.313 91.64L114.553 98.76C114.659 98.8133 114.766 98.84 114.873 98.84C115.353 98.84 117.006 98.6 119.833 98.12L123.993 97.4L135.913 97.24C143.646 97.1333 147.699 97.0267 148.073 96.92C148.339 96.8133 148.659 96.92 149.033 97.24C149.299 97.4533 149.433 97.6133 149.433 97.72C149.433 97.7733 149.353 97.96 149.193 98.28C148.926 98.7067 148.259 98.9733 147.193 99.08C146.126 99.1867 143.166 99.24 138.313 99.24C129.033 99.2933 121.379 99.9067 115.353 101.08L114.473 101.24L114.313 108.6C114.259 110.147 114.179 112.707 114.073 116.28C114.019 119.8 113.993 122.013 113.993 122.92L113.833 129.72L116.553 129.56C118.259 129.507 120.233 129.16 122.473 128.52C125.086 127.773 127.566 127.24 129.913 126.92C132.259 126.653 135.886 126.413 140.793 126.2C143.833 126.093 146.899 125.933 149.993 125.72C151.806 125.613 152.793 125.56 152.953 125.56C153.593 125.56 153.993 125.613 154.153 125.72C154.366 125.88 154.473 126.147 154.473 126.52C154.473 127.053 154.099 127.4 153.353 127.56C152.659 127.72 150.713 127.88 147.513 128.04C138.766 128.467 133.486 128.76 131.673 128.92C129.859 129.133 127.353 129.64 124.153 130.44C120.846 131.293 118.393 131.72 116.793 131.72C115.513 131.72 114.659 131.64 114.233 131.48C113.859 131.373 113.673 131.133 113.673 130.76C113.673 130.547 113.379 130.413 112.793 130.36C112.206 130.36 111.886 130.28 111.833 130.12C111.779 130.013 111.753 129.187 111.753 127.64C111.753 124.387 111.806 121.347 111.913 118.52C112.126 111.853 112.233 107.133 112.233 104.36C112.233 102.333 112.099 101.187 111.833 100.92C111.299 100.387 111.326 99.8533 111.913 99.32C112.179 99.0533 112.313 98.36 112.313 97.24C112.313 95.64 112.286 94.0667 112.233 92.52C112.126 86.8667 111.753 81.88 111.113 77.56C110.793 75.2133 110.633 73.16 110.633 71.4C110.633 68.7333 110.953 67 111.593 66.2Z" fill="#2B2D42"/>
<path d="M164.327 66.2C164.487 65.9867 164.647 65.88 164.807 65.88C164.914 65.88 165.634 66.12 166.967 66.6C167.927 66.9733 169.607 67.16 172.007 67.16C174.674 67.16 176.914 67.08 178.727 66.92C180.167 66.76 181.927 66.68 184.007 66.68C188.167 66.68 191.18 66.8667 193.047 67.24C196.3 67.88 197.927 68.6 197.927 69.4C197.927 69.6667 197.767 69.9333 197.447 70.2C197.287 70.36 197.1 70.44 196.887 70.44C196.567 70.44 195.767 70.2533 194.487 69.88C191.767 69.1867 188.807 68.84 185.607 68.84C183.474 68.84 181.767 68.8933 180.487 69C177.66 69.16 175.1 69.24 172.807 69.24C169.874 69.24 167.927 69.1067 166.967 68.84C166.22 68.6267 165.794 68.5733 165.687 68.68C165.634 68.7333 165.607 69.24 165.607 70.2C165.607 73.3467 165.714 75.5067 165.927 76.68C166.514 79.1333 166.887 84.12 167.047 91.64L167.287 98.76C167.394 98.8133 167.5 98.84 167.607 98.84C168.087 98.84 169.74 98.6 172.567 98.12L176.727 97.4L188.647 97.24C196.38 97.1333 200.434 97.0267 200.807 96.92C201.074 96.8133 201.394 96.92 201.767 97.24C202.034 97.4533 202.167 97.6133 202.167 97.72C202.167 97.7733 202.087 97.96 201.927 98.28C201.66 98.7067 200.994 98.9733 199.927 99.08C198.86 99.1867 195.9 99.24 191.047 99.24C181.767 99.2933 174.114 99.9067 168.087 101.08L167.207 101.24L167.047 108.6C166.994 110.147 166.914 112.707 166.807 116.28C166.754 119.8 166.727 122.013 166.727 122.92L166.567 129.72L169.287 129.56C170.994 129.507 172.967 129.16 175.207 128.52C177.82 127.773 180.3 127.24 182.647 126.92C184.994 126.653 188.62 126.413 193.527 126.2C196.567 126.093 199.634 125.933 202.727 125.72C204.54 125.613 205.527 125.56 205.687 125.56C206.327 125.56 206.727 125.613 206.887 125.72C207.1 125.88 207.207 126.147 207.207 126.52C207.207 127.053 206.834 127.4 206.087 127.56C205.394 127.72 203.447 127.88 200.247 128.04C191.5 128.467 186.22 128.76 184.407 128.92C182.594 129.133 180.087 129.64 176.887 130.44C173.58 131.293 171.127 131.72 169.527 131.72C168.247 131.72 167.394 131.64 166.967 131.48C166.594 131.373 166.407 131.133 166.407 130.76C166.407 130.547 166.114 130.413 165.527 130.36C164.94 130.36 164.62 130.28 164.567 130.12C164.514 130.013 164.487 129.187 164.487 127.64C164.487 124.387 164.54 121.347 164.647 118.52C164.86 111.853 164.967 107.133 164.967 104.36C164.967 102.333 164.834 101.187 164.567 100.92C164.034 100.387 164.06 99.8533 164.647 99.32C164.914 99.0533 165.047 98.36 165.047 97.24C165.047 95.64 165.02 94.0667 164.967 92.52C164.86 86.8667 164.487 81.88 163.847 77.56C163.527 75.2133 163.367 73.16 163.367 71.4C163.367 68.7333 163.687 67 164.327 66.2Z" fill="#2B2D42"/>
<path d="M216.261 84.12C216.261 83.7467 216.395 83.48 216.661 83.32C216.928 83.16 217.141 83.08 217.301 83.08C217.515 83.08 217.941 83.5067 218.581 84.36C219.275 85.2133 219.835 86.04 220.261 86.84C221.115 88.6533 221.701 90.84 222.021 93.4C222.395 95.96 222.661 100.013 222.821 105.56C222.821 106.36 222.821 107.187 222.821 108.04C222.875 108.84 222.901 109.56 222.901 110.2C222.955 110.787 222.981 111.347 222.981 111.88C223.035 112.36 223.061 112.733 223.061 113V113.4C223.328 113.453 223.701 113.48 224.181 113.48C230.155 113.48 234.501 113.32 237.221 113C237.861 112.947 239.115 112.733 240.981 112.36C241.835 112.2 242.448 112.12 242.821 112.12C243.141 112.12 243.355 112.173 243.461 112.28C243.728 112.493 243.835 112.787 243.781 113.16C243.728 113.48 243.568 113.747 243.301 113.96C242.608 114.333 240.341 114.76 236.501 115.24C234.261 115.453 230.981 115.56 226.661 115.56C223.195 115.56 221.381 115.48 221.221 115.32C220.955 115.053 220.795 112.44 220.741 107.48C220.581 101.08 220.341 96.5733 220.021 93.96C219.701 91.3467 219.088 89.16 218.181 87.4C217.701 86.5467 217.275 85.9333 216.901 85.56C216.475 85.1333 216.261 84.6533 216.261 84.12Z" fill="#2B2D42"/>
<path d="M276.906 70.2C278.186 69.9867 278.906 69.88 279.066 69.88C279.332 69.88 279.999 69.9867 281.066 70.2C283.572 70.8933 284.826 72.5467 284.826 75.16C284.826 77.24 284.452 78.28 283.706 78.28C282.959 78.28 282.586 77.88 282.586 77.08C282.586 77.0267 282.586 76.8933 282.586 76.68C282.639 76.4667 282.666 76.28 282.666 76.12C282.772 75.1067 282.719 74.36 282.506 73.88C282.132 72.8667 281.066 72.36 279.306 72.36C277.119 72.36 274.506 73.08 271.466 74.52C267.999 76.1733 265.386 77.88 263.626 79.64C261.812 81.4533 260.906 83.2133 260.906 84.92C260.906 87.1067 262.292 88.8933 265.066 90.28C266.506 91.0267 269.252 91.8 273.306 92.6C276.559 93.24 278.959 93.88 280.506 94.52C282.052 95.16 283.359 96.0667 284.426 97.24C285.226 98.1467 285.759 98.9467 286.026 99.64C286.346 100.333 286.506 101.267 286.506 102.44C286.506 103.827 286.266 104.973 285.786 105.88C285.412 106.627 284.639 107.64 283.466 108.92C282.346 110.147 281.332 111.053 280.426 111.64C274.772 115.48 268.799 117.4 262.506 117.4C258.826 117.4 255.892 116.493 253.706 114.68C253.066 114.2 252.746 113.747 252.746 113.32C252.746 112.947 252.932 112.653 253.306 112.44C253.626 112.28 253.839 112.227 253.946 112.28C254.106 112.333 254.532 112.627 255.226 113.16C257.039 114.493 259.492 115.16 262.586 115.16C266.052 115.16 269.572 114.467 273.146 113.08C276.719 111.64 279.626 109.8 281.866 107.56C283.679 105.747 284.586 104.013 284.586 102.36C284.586 100.92 283.946 99.5867 282.666 98.36C280.906 96.7067 277.492 95.4533 272.426 94.6C270.239 94.1733 268.532 93.8267 267.306 93.56C265.066 92.92 263.146 91.88 261.546 90.44C259.946 89 259.012 87.5067 258.746 85.96C258.746 85.9067 258.719 85.8267 258.666 85.72C258.666 85.56 258.666 85.4267 258.666 85.32C258.666 83.9333 259.146 82.4133 260.106 80.76C261.492 78.52 263.866 76.3867 267.226 74.36C270.586 72.3333 273.812 70.9467 276.906 70.2Z" fill="#2B2D42"/>
</svg>
