<svg width="267" height="239" viewBox="0 0 267 239" fill="none" xmlns="http://www.w3.org/2000/svg">
<path d="M254.569 132.687C253.839 131.425 253.38 130.072 252.742 129.081C250.26 120.869 242.809 113.134 235.477 111.093C228.508 109.231 221.737 110.622 215.333 113.095C210.185 113.935 205.313 115.587 201.084 119.134C191.838 96.3148 170.958 78.3461 147.165 74.0399C150.138 72.1265 153.019 69.9426 155.446 67.309C157.34 66.6666 159.143 65.7535 160.767 65.2029C161.767 66.3727 164.203 65.5467 163.923 63.8309C164.194 63.7391 164.194 63.7391 164.465 63.6474C166.538 62.6425 165.437 59.3945 163.364 60.3993C163.093 60.4911 162.822 60.5829 162.552 60.6746C157.252 49.4947 150.87 38.6818 143.496 28.5067C145.749 27.1394 147.276 25.4143 146.813 23.1571C146.349 20.9 142.831 22.0931 143.565 24.2584C143.657 24.5291 142.936 25.0751 141.583 25.534C140.404 24.7266 138.78 25.2772 138.606 26.5435C137.972 26.4563 137.431 26.6399 136.982 27.0941C136.711 27.1859 136.803 27.4566 136.532 27.5483C127.15 31.0311 110.818 36.2669 108.924 36.9093C98.4592 40.7592 88.9904 44.8751 79.9851 51.2481C78.2739 52.4318 79.733 54.955 81.6277 54.3126C82.169 54.129 82.4397 54.0373 82.981 53.8537C80.3661 55.0421 78.1136 56.4094 75.4987 57.5978C75.4069 57.3272 75.2234 56.7858 74.8609 56.6069C74.0396 55.0747 71.3329 55.9924 71.6129 57.7082C71.5257 58.3413 71.7093 58.8827 71.9846 59.6947C71.7139 59.7865 71.1726 59.97 70.9937 60.3325C69.1908 61.2456 70.8334 64.3101 72.6363 63.397C74.4858 71.5217 78.5052 79.8161 81.0749 87.3949C81.8091 89.5603 85.0572 88.459 84.323 86.2936C84.0476 85.4816 83.8641 84.9402 83.5888 84.1282C84.1348 84.8485 84.589 85.298 85.135 86.0183C86.4976 87.367 88.2959 85.5501 88.1077 84.105C86.2629 76.884 83.3354 70.0301 81.5824 63.0798C89.2437 58.9732 96.9049 54.8666 104.745 50.3976C108.351 48.5714 112.044 46.1121 116.099 43.8317C122.774 41.2667 129.358 38.431 136.033 35.866C137.386 35.4071 137.377 33.5995 136.831 32.8793C137.28 32.4251 138 31.8791 138.45 31.4248C144.364 39.0768 148.567 47.9125 155.472 54.9267C155.835 55.1056 155.926 55.3763 156.197 55.2845C157.294 57.6287 158.39 59.973 159.487 62.3173C158.675 62.5926 157.863 62.8679 157.143 63.4139C156.689 62.9644 156.055 62.8772 155.606 63.3314C129.814 74.4907 102.004 79.6952 77.7677 94.552C75.7858 95.8276 77.6991 98.8003 79.681 97.5247C83.195 95.4279 86.7091 93.331 90.4067 91.7755C89.9618 93.1335 91.0538 94.574 92.6778 94.0234C95.6552 93.0139 98.3619 92.0961 101.339 91.0866C101.702 91.2655 101.885 91.8068 102.248 91.9857C103.34 93.4262 104.432 94.8667 105.524 96.3072C87.2517 110.953 82.202 130.772 83.667 152.004C83.5938 155.348 83.9702 158.239 84.1677 161.491C83.9888 161.854 83.8099 162.216 83.9935 162.758C85.1273 172.332 78.8055 173.269 70.8596 174.756C65.4415 175.687 60.0281 177.523 55.7067 180.799C48.8621 185.534 43.8437 193.875 44.9729 202.545C45.7303 209.23 50.4607 215.171 56.5259 217.037C64.3114 219.528 70.6147 214.976 77.1015 210.966C77.1933 211.237 77.5557 211.416 78.1888 211.503C79.4551 211.677 80.4506 211.943 81.7168 212.117C81.8086 212.388 82.2628 212.838 82.6253 213.017C85.7084 214.989 88.9611 214.792 92.2963 213.057C93.5578 212.328 93.0943 210.071 91.5574 209.988C91.2868 210.08 91.195 209.809 90.9243 209.901C91.195 209.809 91.6445 209.355 91.9152 209.263C92.2777 209.442 92.9108 209.529 93.3604 209.075C94.4802 215.938 98.3068 221.884 106.436 220.938C112.85 220.272 117.887 215.547 121.653 209.743C125.892 208.004 129.667 204.008 131.452 199.479C132.254 197.396 128.992 195.786 128.19 197.869C127.566 199.59 126.58 201.131 125.593 202.673C126.933 199.503 128.272 196.332 128.8 193.437C129.066 192.442 129.24 191.176 129.593 189.547C129.598 190.451 129.602 191.354 129.515 191.988C129.437 194.428 132.961 194.139 133.039 191.698C132.942 190.524 132.846 189.349 132.749 188.175C143.668 184.775 154.403 180.833 164.954 176.35C165.225 176.258 165.496 176.166 165.496 176.166C165.693 179.419 167.157 182.846 170.332 185.089C174.324 187.961 178.572 188.029 182.54 186.382C183.444 186.378 184.077 186.465 184.981 186.46C185.797 187.088 186.972 186.992 187.33 186.267C195.817 184.597 203.368 176.604 202.055 167.392C201.871 166.851 202.05 166.488 201.867 165.947C204.032 165.213 206.106 164.208 208.363 163.744C217.657 160.895 227.044 158.316 235.976 155.287C238.953 154.278 241.839 152.998 244.541 151.176C245.353 150.901 246.073 150.355 246.885 150.079C255.446 145.064 258.772 141.522 254.569 132.687ZM107.415 42.2496C103.896 43.4426 100.648 44.5439 97.1291 45.737C101.639 43.9061 106.419 41.9835 111.199 40.0609C109.938 40.7905 108.676 41.52 107.415 42.2496ZM143.178 72.072C142.82 72.7969 142.279 72.9804 141.738 73.164C141.467 73.2558 141.375 72.9851 141.105 73.0769C141.917 72.8015 142.458 72.618 143.178 72.072ZM142.119 76.958C145.826 77.2101 148.812 78.0081 151.799 78.8062C149.629 78.6366 147.459 78.467 145.289 78.2974C143.39 78.0361 141.403 78.4078 139.325 78.5089C140.408 78.1418 141.399 77.504 142.119 76.958ZM135.604 75.5455C135.696 75.8161 135.788 76.0868 136.058 75.995C131.64 78.0965 127.039 79.6567 122.346 80.9462C126.856 79.1153 131.094 77.3763 135.604 75.5455ZM121.011 85.0202C116.956 87.3006 113.355 90.0306 109.483 92.8523L109.391 92.5816C108.932 91.2283 108.202 89.9667 107.202 88.7969C111.895 87.5074 116.318 86.3097 121.011 85.0202ZM48.2987 199.003C48.5415 193.489 51.8581 188.139 55.9959 184.322C55.3675 185.139 54.4683 186.047 53.9317 187.135C51.9591 190.218 49.5417 194.659 48.2987 199.003ZM114.074 212.312C111.643 214.042 109.39 215.409 106.954 216.235C100.082 215.548 96.6317 212.493 96.3331 207.162C96.2413 206.891 96.1495 206.62 96.3284 206.258C96.9615 206.345 97.4111 205.891 97.7689 205.166C98.1267 204.441 98.2138 203.808 98.5716 203.083C98.6634 203.354 98.8469 203.895 99.2094 204.074C99.6636 204.523 100.388 204.881 101.292 204.877L101.113 205.239C100.852 207.138 103.66 208.299 104.554 206.487L104.733 206.124C104.912 205.762 104.82 205.491 105.091 205.399C105.183 205.67 105.637 206.12 105.729 206.39C106.091 206.569 106.183 206.84 106.454 206.748C107.362 207.647 108.27 208.546 109.537 208.721C109.725 210.166 111.987 210.606 112.794 209.427C113.881 209.964 114.877 210.23 116.051 210.133C115.423 210.95 114.795 211.766 114.074 212.312ZM101.512 194.843C101.947 191.678 102.562 188.15 103.181 185.525C103.631 185.071 104.08 184.617 104.438 183.892C103.645 187.782 102.759 191.402 101.512 194.843ZM115.023 203.541C115.023 203.541 114.753 203.632 114.661 203.362C114.661 203.362 114.84 202.999 114.927 202.366C115.019 202.637 114.932 203.27 115.023 203.541ZM108.114 195.623C108.375 193.723 108.728 192.095 108.815 191.461C108.723 191.191 108.902 190.828 109.081 190.466C109.526 189.108 110.242 187.658 111.049 186.479C110.251 189.466 109.182 192.544 108.114 195.623ZM114.504 190.438C114.852 187.906 115.201 185.373 115.82 182.749C115.458 182.57 115.637 182.208 115.545 181.937C115.907 182.116 116.178 182.024 116.54 182.203C115.999 182.386 115.82 182.749 115.733 183.382C115.385 185.914 114.944 188.176 114.504 190.438ZM110.654 179.974C110.833 179.611 110.562 179.703 110.654 179.974C110.741 179.341 110.92 178.978 110.828 178.707C111.549 178.161 112.269 177.615 113.081 177.34C111.911 178.34 111.283 179.157 110.654 179.974ZM121.078 185.795C120.812 186.79 120.725 187.423 120.908 187.965C120.638 188.057 120.459 188.419 120.551 188.69C120.023 191.585 119.496 194.479 118.698 197.466L118.519 197.829C118.674 192.947 118.83 188.066 119.256 183.093C119.435 182.73 119.073 182.551 118.981 182.281C120.61 182.634 122.06 183.349 122.968 184.249C121.885 184.616 121.436 185.07 121.078 185.795ZM118.958 177.762C118.595 177.583 118.325 177.675 117.783 177.858C121.476 175.399 124.559 177.371 125.752 180.89C124.298 179.271 122.032 177.927 118.958 177.762ZM169.657 176.868C171.024 179.121 172.662 181.281 174.658 182.717C171.942 181.827 170.304 179.667 169.657 176.868ZM173.607 171.606C172.336 170.528 171.514 168.995 171.143 167.009C172.216 164.834 173.652 162.838 175.45 161.022C174.565 164.641 173.95 168.169 173.607 171.606ZM183.87 181.404C183.421 181.859 182.609 182.134 181.797 182.409C179.805 181.877 177.993 180.983 176.268 179.455C178.713 180.437 181.246 180.785 183.687 180.863C183.778 181.134 183.778 181.134 183.87 181.404ZM179.547 166.875C179.745 170.128 179.942 173.381 180.14 176.633C179.144 176.367 178.057 175.831 177.24 175.202C177.855 171.674 178.378 167.876 178.992 164.347C179.258 163.352 179.345 162.719 179.432 162.086C179.442 163.893 179.451 165.701 179.547 166.875ZM191.004 180.193C191.275 180.101 191.545 180.009 191.816 179.917C191.096 180.463 190.284 180.739 189.564 181.285C189.834 181.193 190.284 180.739 191.004 180.193ZM182.859 160.622C182.763 159.448 182.667 158.273 182.57 157.099C183.111 156.915 184.015 156.91 184.648 156.998C184.653 157.901 184.387 158.897 184.392 159.801C183.759 159.714 183.217 159.897 182.859 160.622ZM192.087 179.826C192.266 179.463 192.536 179.371 192.623 178.738C192.623 178.738 192.532 178.468 192.711 178.105C193.701 177.467 194.33 176.651 194.958 175.834C195.321 176.013 195.321 176.013 195.683 176.192C194.697 177.733 193.348 179.096 192.087 179.826ZM197.917 171.209C197.825 170.939 197.555 171.031 197.463 170.76C197.55 170.127 197.366 169.585 197.454 168.952C197.541 168.319 197.357 167.778 197.536 167.415C197.623 166.782 197.71 166.149 197.797 165.516C198.068 165.424 198.16 165.695 198.431 165.603C198.44 167.411 198.27 169.581 197.917 171.209ZM246.041 144.028C244.513 145.753 242.894 147.208 240.912 148.483C240.448 146.226 236.925 146.515 237.389 148.773C237.384 147.869 224.841 151.82 222.768 152.825C220.148 153.109 217.62 153.664 215.092 154.22C209.766 155.422 205.078 157.615 200.118 159.9C199.389 158.639 198.48 157.74 197.301 156.932C196.842 155.579 195.842 154.409 194.571 153.331C194.296 152.519 193.571 152.161 193.03 152.345C191.58 151.629 190.222 151.184 188.956 151.01C188.864 150.74 188.772 150.469 188.68 150.198C188.488 147.849 185.327 148.317 185.157 150.487C180.9 148.611 176.11 148.726 172.151 152.181C170.261 153.727 169.004 155.361 168.11 157.173C167.297 157.448 166.485 157.724 165.765 158.27C163.692 159.275 164.793 162.523 166.867 161.518C166.426 163.78 166.527 165.858 166.991 168.115C166.725 169.11 166.459 170.106 166.101 170.831C165.289 171.106 164.477 171.382 163.757 171.928C157.981 173.584 152.113 174.97 146.159 176.989C144.264 177.631 137.313 179.385 131.721 181.582C131.171 179.958 130.528 178.064 129.436 176.623C128.688 171.747 126.229 168.054 120.549 170.885C118.742 170.894 116.755 171.266 114.319 172.092C110.351 173.739 106.929 176.106 103.782 179.286C102.873 178.387 101.157 178.667 100.804 180.295C100.809 181.199 100.451 181.924 100.364 182.557C99.3684 182.291 98.2857 182.658 98.1115 183.925C97.7583 185.553 97.4052 187.182 96.6896 188.632C94.8089 191.985 93.653 195.697 93.0385 199.225C92.9514 199.858 92.956 200.762 92.8689 201.395C92.5982 201.487 92.5982 201.487 92.2358 201.308C92.2358 201.308 92.2358 201.308 91.9651 201.4C87.6251 201.061 84.2853 201.891 80.9501 203.626C77.5231 205.089 74.0091 207.186 70.3115 208.742C62.6456 211.944 62.5584 212.578 57.1856 204.742C52.4506 197.898 51.8268 199.618 54.2395 194.273C57.0972 187.57 61.0423 181.404 69.2635 180.729C70.7086 180.541 71.0617 178.912 70.6946 177.829C77.3789 177.072 84.0632 176.314 86.5678 171.24C86.6596 171.511 86.6596 171.511 86.7513 171.782C87.4855 173.947 90.7336 172.846 89.9994 170.68C89.7241 169.868 89.6276 168.694 89.3523 167.882C90.4304 166.611 89.8797 164.987 88.7006 164.18C87.8653 159.936 87.3925 155.871 87.1903 151.715C87.1764 149.003 87.4331 146.2 87.6898 143.397C87.7769 142.764 87.5016 141.952 87.1392 141.773C87.8675 125.23 93.3029 110.108 108.336 98.3715C117.878 90.9111 128.952 82.6294 141.33 81.7523C152.533 80.9716 168.641 84.8654 176.455 92.7787C177.001 93.499 177.813 93.2237 178.354 93.0401C190.338 103.463 199.18 117.968 202.062 133.59C202.525 135.847 206.049 135.557 205.585 133.3C205.025 129.869 204.103 126.258 202.731 123.102C207.149 121 211.383 118.358 215.893 116.527C224.921 114.673 235.23 115.704 241.309 120.282C243.667 121.897 246.851 125.948 248.857 129.191C250.687 133.701 250.532 138.582 246.041 144.028Z" fill="#010101"/>
<path d="M136.971 130.309C136.429 130.493 136.158 130.585 135.98 130.947C135.709 131.039 135.709 131.039 135.438 131.131C134.617 129.598 134.066 127.974 133.245 126.442C133.405 122.465 131.4 119.221 128.317 117.249C126.95 114.996 125.491 112.473 123.853 110.312C124.394 110.129 124.573 109.766 125.114 109.583C127.004 108.037 124.82 105.156 123.201 106.61C122.21 107.248 121.49 107.794 120.499 108.432C120.228 108.523 119.866 108.344 119.687 108.707C117.343 109.804 114.728 110.992 112.292 111.818C109.856 112.644 107.69 113.378 105.438 114.745C104.616 113.213 102.901 113.493 102.093 114.672C100.552 113.686 98.1204 115.416 99.5748 117.035C100.029 117.485 100.304 118.297 100.759 118.746C100.038 119.292 99.2263 119.568 98.5061 120.114C96.7903 120.394 98.3411 123.187 100.236 122.545C101.319 122.178 101.589 122.086 102.131 121.902C104.241 128.128 106.623 134.262 108.734 140.487C108.825 140.758 108.917 141.028 109.009 141.299C109.009 141.299 109.009 141.299 109.101 141.57C109.192 141.84 109.014 142.203 109.376 142.382C109.56 142.923 109.743 143.464 110.197 143.914C111.202 145.988 114.45 144.886 113.445 142.813C113.262 142.271 113.17 142.001 112.987 141.459C113.257 141.368 113.799 141.184 114.069 141.092C120.029 139.977 125.442 138.141 130.58 135.494C131.392 135.219 132.296 135.214 133.379 134.847C133.47 135.118 133.562 135.388 133.746 135.93C134.751 138.003 137.999 136.902 136.994 134.828C136.902 134.558 136.902 134.558 136.81 134.287C137.352 134.103 137.714 134.282 138.255 134.099C139.971 133.819 140.503 131.828 138.962 130.841C138.237 130.484 137.874 130.305 136.971 130.309ZM110.599 116.617C110.512 117.25 110.154 117.975 110.067 118.608C109.888 118.97 110.072 119.512 109.893 119.874C109.443 120.328 109.264 120.691 109.086 121.053C108.448 120.062 107.902 119.342 107.264 118.351C108.255 117.713 109.516 116.984 110.599 116.617ZM111.118 129.719C110.935 129.178 110.93 128.274 110.747 127.733C111.206 129.086 112.022 129.715 112.839 130.343C113.201 130.522 113.293 130.793 113.564 130.701C114.018 131.151 114.472 131.6 115.105 131.687C115.743 132.678 116.56 133.307 117.555 133.573C114.757 134.22 111.77 133.422 111.118 129.719ZM131.915 131.42C131.644 131.512 131.282 131.333 131.282 131.333C131.552 131.241 131.461 130.97 131.731 130.879C131.823 131.149 131.823 131.149 131.915 131.42Z" fill="#010101"/>
<path d="M182.443 114.891C182.888 113.533 182.613 112.721 181.888 112.363C181.888 112.363 181.888 112.363 181.796 112.093C181.704 111.822 181.342 111.643 181.25 111.373C181.507 108.569 180.497 105.592 177.685 103.528C176.143 102.542 174.694 101.826 172.703 101.294C171.611 99.8534 170.34 98.7754 169.248 97.3349C169.248 97.3349 169.248 97.3349 169.156 97.0642C169.243 96.4311 168.876 95.3484 168.151 94.9906C168.509 94.2657 168.504 93.362 167.504 92.1922C166.05 90.5728 163.623 93.2063 165.077 94.8257C163.169 92.7568 155.957 96.4091 153.883 97.414C150.727 98.7859 147.663 100.429 144.69 102.342C143.428 103.071 143.979 104.695 144.796 105.324C144.529 106.319 144.805 107.131 145.53 107.489C145.897 108.572 146.443 109.292 146.81 110.375C146.631 110.737 146.544 111.37 146.998 111.82C148.09 113.26 148.82 114.522 149.641 116.054C150.738 118.399 152.105 120.651 153.564 123.174C154.482 125.881 155.67 128.496 156.588 131.203C157.593 133.276 160.841 132.175 159.836 130.101C161.368 129.28 163.171 128.367 164.703 127.546C166.69 127.174 168.763 126.169 170.112 124.806C173.447 123.072 176.512 121.429 179.847 119.695C180.388 119.511 180.746 118.786 180.563 118.245C181.925 119.594 183.109 121.305 184.472 122.654C185.926 124.273 188.899 122.36 187.444 120.74C185.898 118.85 184.081 117.052 182.443 114.891ZM152.971 113.416C152.788 112.875 152.696 112.604 152.242 112.155C152.513 112.063 152.691 111.7 152.962 111.609C153.054 111.879 152.967 112.512 152.971 113.416ZM153.21 106.998C152.219 107.636 151.498 108.182 150.508 108.819C149.962 108.099 149.778 107.558 149.232 106.838C150.856 106.287 152.388 105.466 153.65 104.736C153.563 105.369 153.297 106.365 153.21 106.998ZM163.069 108.484C161.899 109.484 161.183 110.934 161.101 112.47L160.738 112.292C159.463 110.31 160.27 109.131 162.615 108.034C163.156 107.85 163.518 108.029 164.06 107.846C163.789 107.938 163.248 108.121 163.069 108.484ZM169.621 117.126C169.529 116.856 169.8 116.764 169.708 116.493C169.887 116.131 170.157 116.039 170.336 115.677C170.249 116.31 169.8 116.764 169.621 117.126ZM175.759 115.649C175.309 116.103 174.497 116.378 173.956 116.562C173.864 116.291 174.043 115.929 173.951 115.658C174.305 114.029 174.387 112.492 174.107 110.777C175.015 111.676 176.016 112.846 176.924 113.745C176.566 114.47 176.117 114.924 175.759 115.649Z" fill="#010101"/>
</svg>
