<svg width="299" height="245" viewBox="0 0 299 245" fill="none" xmlns="http://www.w3.org/2000/svg">
<g clip-path="url(#clip0_309_74)">
<path d="M77.0776 131.642C81.4083 131.65 85.4878 134.008 89.4462 134.758C90.8067 135.132 91.5475 136.123 92.5357 137.238C94.6351 139.84 95.8676 142.935 98.3385 145.414C98.9562 146.033 98.4607 146.403 98.4597 147.022C98.3337 148.506 97.8363 150.113 98.2048 151.846C98.6936 155.805 96.2141 158.893 93.7365 160.743C91.259 162.594 87.4219 163.452 83.834 163.198C81.4835 162.946 78.8856 162.57 76.4109 162.565C74.5549 162.562 73.0713 161.817 71.8359 160.577C69.1178 157.974 66.8952 155.001 65.1681 151.658C63.0706 147.819 63.9432 143.615 65.9291 139.661C66.5497 138.425 67.2934 137.56 68.4095 135.955C66.1812 136.692 64.4483 137.06 63.21 137.676C60.2379 139.279 57.6411 138.284 55.6648 136.054C50.6019 129.488 44.7962 123.168 41.5912 115.369C39.7419 111.036 38.7595 106.21 39.6332 101.387C39.8824 100.274 40.5039 98.4199 39.6389 97.6761C36.6735 94.949 39.3984 93.2225 40.5154 90.998C44.1148 83.8305 49.3201 78.3978 55.7608 74.2045C62.2014 70.0112 69.256 68.9116 76.9273 69.0501C77.5459 69.0513 78.535 69.548 79.0305 69.1779C85.4674 67.4586 91.0296 71.1803 97.2153 71.8108C101.051 72.1893 104.51 75.1647 107.971 77.5217C110.69 79.5061 110.69 79.5061 113.292 77.4083C122.832 69.51 133.606 63.4696 145.49 60.1528C149.451 59.0471 153.534 58.9313 157.617 59.434C166.649 59.9463 175.928 60.5827 184.336 64.1863C193.363 67.791 201.151 72.6303 207.449 80.4355C215.106 89.8514 219.544 100.127 220.268 112.251C220.753 118.684 220 125.115 219.991 131.3C219.863 134.021 219.858 137.113 219.977 139.959C219.975 141.814 220.715 142.805 222.57 143.427C227.765 144.798 231.844 147.775 235.921 151.37C241.852 156.824 247.907 162.031 252.475 168.349C256.673 174.17 258.644 180.112 257.766 187.408C257.136 194.829 254.898 201.752 251.547 208.425C249.809 211.885 247.207 214.602 244.481 216.947C243.986 217.317 243.49 217.687 242.994 218.057C237.664 224.355 230.237 226.196 222.318 226.552C216.254 226.912 210.565 225.292 205.124 223.179C200.796 221.315 197.343 214.01 198.217 209.188C198.468 206.838 198.843 204.241 199.094 201.891C199.846 195.46 197.379 190.508 193.055 186.17C188.484 181.708 182.672 179.717 176.113 180.447C172.153 180.934 168.315 181.793 164.848 183.765C161.009 185.861 157.048 186.966 152.715 188.195C151.354 188.44 150.364 187.943 149.375 187.446C143.935 184.714 138.248 181.858 132.684 179.373C129.469 177.759 126.006 176.639 122.792 175.025C117.105 172.169 111.169 169.807 105.854 166.209C102.393 163.852 99.6759 160.631 100.302 155.684C100.553 153.335 100.186 150.984 100.066 148.757C99.9539 140.964 95.3837 135.883 88.5821 133.396C85.2463 130.173 81.1648 129.052 77.0776 131.642ZM109.692 85.1943C109.446 83.8332 109.2 83.0905 108.211 82.5938C105.615 80.9807 103.143 79.1204 100.299 78.0016C90.6544 73.7772 80.6335 72.7683 70.2384 73.7378C67.2682 74.1031 64.1739 74.7156 61.6963 76.5663C61.8195 76.9376 61.8195 76.9376 61.9426 77.309C62.3131 77.8045 62.4362 78.1758 62.8067 78.6713C66.512 83.0079 66.0097 87.7075 64.3933 92.776C63.6467 95.4959 61.6647 96.9765 59.1881 98.2087C55.7214 99.5627 52.2576 99.0612 48.918 98.3125C45.5783 97.5639 44.5873 98.3041 44.3343 101.891C44.2092 102.757 44.3314 103.746 44.5777 104.489C45.6833 109.687 47.4075 114.885 50.4941 119.221C53.0871 122.689 56.0515 126.035 58.6446 129.503C60.6199 132.352 60.8672 132.476 63.8393 130.874C67.6783 128.779 72.135 127.303 76.3435 126.321C81.0474 124.97 85.9958 125.598 90.4477 127.215C97.8679 129.703 105.771 139.862 105.384 149.88C105.258 151.364 105.38 152.973 105.501 154.581C105.497 157.055 106.731 158.913 108.461 160.401C109.697 161.64 111.057 162.014 112.541 162.759C122.803 167.603 133.437 172.324 143.327 177.91C148.89 181.013 154.703 183.003 160.65 177.943C161.145 177.573 161.517 177.45 162.26 177.204C168.574 174.495 174.888 172.404 181.939 173.779C189.608 175.154 195.169 179.494 199.738 185.812C202.454 189.652 203.809 193.736 203.925 198.437C204.043 201.901 203.543 205.363 203.043 208.826C202.666 212.66 204.269 216.25 207.36 217.493C208.349 217.99 209.586 217.992 210.576 218.489C227.149 223.098 242.132 215.458 249.455 200.875C251.689 196.427 252.809 192.347 252.074 187.645C251.952 186.655 252.077 185.789 252.574 184.801C253.566 183.442 253.692 181.958 251.837 181.336C250.847 180.839 250.601 180.096 250.974 179.355C252.092 176.512 250.858 174.036 249.5 171.806C246.292 166.481 242.092 161.896 237.272 157.928C233.565 154.829 230.353 151.359 226.15 149.248C223.677 148.006 221.08 147.012 218.607 145.77C217.371 145.149 216.135 144.528 216.261 143.044C216.141 140.199 215.526 137.724 215.779 134.755C216.66 124.985 217.047 114.966 215.206 105.066C214.348 99.9932 213.366 94.5486 210.28 90.2131C204.477 82.0378 198.674 73.8625 188.782 69.5139C184.454 67.6501 179.754 66.5277 175.425 65.2823C169.983 63.7874 164.168 63.6525 158.23 63.1462C148.332 62.5085 139.79 65.3371 131.615 70.5166C123.937 74.7075 116.259 78.8984 109.692 85.1943ZM85.4821 137.719C83.9984 136.974 76.6995 136.094 75.4622 136.092C71.7492 136.703 69.0215 140.285 68.7675 144.49C68.2643 149.809 70.8564 153.896 75.0591 156.625C79.2618 159.355 84.2112 159.364 88.793 157.023C91.6409 155.668 93.748 153.321 93.6297 149.858C92.8955 144.537 90.3035 140.45 85.4821 137.719ZM58.8301 89.6728C60.4436 86.4598 60.2012 83.2431 58.349 80.7656C56.8673 78.7835 56.2486 78.7823 54.5138 80.3871C52.6549 82.2389 50.6719 84.338 49.0603 86.314C47.5728 88.0429 47.57 89.8984 47.443 92.001C47.4411 93.238 47.8115 93.7335 49.0479 94.3544C53.1293 95.4756 57.0915 93.7515 58.8301 89.6728Z" fill="#2B2D42"/>
<path d="M171.984 209.632C167.657 207.15 163.826 204.297 161.606 199.468C158.77 193.402 161.379 186.356 167.323 183.151C169.8 181.919 172.647 181.182 175.37 180.693C175.741 180.57 176.113 180.447 176.113 180.447C181.431 182.189 186.997 183.437 190.331 187.896C193.789 192.109 194.523 197.429 193.401 202.746C192.903 204.972 191.415 206.701 189.805 207.44C184.108 210.769 178.289 213.108 171.984 209.632ZM173.228 205.305C174.342 205.554 176.197 206.176 177.928 206.427C182.258 207.054 186.717 204.341 188.331 200.51C189.822 196.925 188.591 192.594 184.884 189.494C184.266 188.874 183.524 188.502 182.782 188.129C178.086 184.533 173.135 185.76 168.553 188.102C166.943 188.841 166.323 190.077 165.825 191.684C164.455 197.495 166.922 202.448 173.228 205.305Z" fill="#2B2D42"/>
<path d="M47.2571 52.2935C48.8649 52.7914 49.3585 53.6582 49.7279 54.7722C50.8373 57.4957 52.194 60.3434 52.932 63.1899C53.3014 64.3039 54.4127 65.7904 52.1844 66.5283C50.3274 67.1432 48.3473 67.3868 47.4842 65.4059C46.1285 61.9398 45.1442 58.3506 44.5313 54.6385C44.4101 53.0301 46.5153 51.9209 47.2571 52.2935Z" fill="#2B2D42"/>
<path d="M36.457 75.0331C35.4679 74.5364 34.1083 73.5442 32.7488 72.5519C30.4002 71.063 30.4011 70.4445 31.6423 67.9729C32.387 66.49 33.7485 66.2452 34.7366 67.3604C36.5897 69.2195 38.5679 70.2129 40.5452 71.8248C41.6574 72.6929 42.8928 73.9322 41.7767 75.5382C40.9089 76.6498 39.3002 76.7704 37.8165 76.0253C37.4461 75.5298 37.1988 75.4056 36.457 75.0331Z" fill="#2B2D42"/>
<path d="M23.1879 94.057C21.7043 93.3119 21.0865 92.6922 21.7081 90.838C22.3287 89.6022 22.4547 88.1181 24.3098 88.7401C26.5362 89.2392 28.6385 89.9855 30.6167 90.9789C31.6058 91.4756 31.9753 92.5896 31.8502 93.4553C31.601 94.5681 30.7351 94.4427 29.745 94.5645C27.6417 94.4367 25.4143 94.5561 23.1879 94.057Z" fill="#2B2D42"/>
<path d="M158.512 120.543C154.553 119.793 151.341 116.942 147.632 115.079C139.966 111.23 132.302 106.762 124.76 102.665C122.287 101.423 119.443 100.304 116.846 99.3098C114.744 98.5636 114.127 97.3254 115.12 95.3481C115.617 94.3595 115.99 92.9995 116.61 92.3822C120.326 89.297 122.932 84.7251 126.896 81.7641C127.763 81.2709 128.754 80.5307 129.126 79.7892C139.538 68.3054 152.534 65.8565 167.133 66.9981C168.37 67.0005 169.483 67.25 170.596 67.4996C177.278 67.7599 182.345 71.2332 186.545 75.8182C198.528 88.3349 203.577 103.56 203.675 120.63C203.667 125.578 203.906 130.65 203.156 135.844C202.907 136.957 202.905 138.194 202.408 139.183C201.788 140.418 201.043 141.901 200.052 142.642C198.441 143.999 197.578 142.018 196.342 141.397C185.214 136.428 174.954 129.728 164.074 124.265C161.849 123.147 159.994 121.906 161.237 118.816C161.609 118.075 161.363 117.332 160.621 116.96C159.508 116.71 159.258 117.823 159.133 118.689C159.133 118.689 159.503 119.803 158.512 120.543ZM177.394 72.4606C173.19 70.3496 169.478 70.3425 165.643 69.9639C154.384 69.5711 143.987 71.7775 135.313 79.8012C130.728 83.998 126.021 87.8236 122.177 93.0115C119.449 96.5935 119.325 96.8406 123.281 98.8275C123.529 98.9516 123.776 99.0758 124.023 99.2C131.936 103.174 139.725 107.394 147.389 111.862C150.48 113.724 153.942 114.844 157.404 116.582C163.491 101.379 169.824 86.9187 177.394 72.4606ZM181.844 75.3143C180.355 78.2802 178.865 81.2461 177.623 84.3362C175.263 90.2691 173.273 96.6976 170.666 102.506C168.927 106.585 167.188 110.664 165.326 114.99C163.587 119.068 163.587 119.068 167.419 121.302C167.914 121.551 168.161 121.675 168.656 121.923C173.23 124.53 178.052 126.642 182.255 129.371C186.21 131.977 190.043 134.211 194.371 136.075C198.204 137.69 197.957 137.566 198.581 133.856C200.206 123.221 199.48 112.953 197.021 102.434C194.934 91.7916 189.875 82.7518 181.844 75.3143Z" fill="#2B2D42"/>
</g>
<defs>
<clipPath id="clip0_309_74">
<rect width="262.869" height="141.051" fill="white" transform="translate(63.2999) rotate(26.6649)"/>
</clipPath>
</defs>
</svg>
