<svg width="287" height="131" viewBox="0 0 287 131" fill="none" xmlns="http://www.w3.org/2000/svg">
<path d="M94.4319 19.875C94.0585 19.715 93.3119 19.635 92.1919 19.635C91.6052 19.635 91.0452 19.6884 90.5119 19.795C88.9652 20.1684 87.4719 21.0217 86.0319 22.355C84.5919 23.635 83.4185 25.1284 82.5119 26.835C81.5519 28.755 81.0719 30.275 81.0719 31.395C81.0719 32.195 81.3119 32.995 81.7919 33.795C82.8585 35.6084 84.8852 36.7817 87.8719 37.315C88.8319 37.4217 90.0052 37.475 91.3919 37.475C93.3119 37.475 94.3519 37.395 94.5119 37.235C94.9385 36.8084 95.1519 33.7417 95.1519 28.035C95.1519 22.755 94.9119 20.035 94.4319 19.875ZM90.1919 1.15504C90.1919 0.888372 90.2985 0.675039 90.5119 0.515041C90.7252 0.35504 90.9385 0.27504 91.1519 0.27504C91.6319 0.27504 92.2985 1.28837 93.1519 3.31504C95.9252 9.66171 97.3119 17.7417 97.3119 27.555V30.035C97.2052 33.6617 97.0985 35.715 96.9919 36.195C96.9385 36.4617 96.9385 36.6217 96.9919 36.675C97.0452 36.7284 97.2585 36.7284 97.6319 36.675C98.1119 36.6217 98.4585 36.7017 98.6719 36.915C98.8852 37.075 98.9652 37.395 98.9119 37.875C98.8585 38.355 98.4319 38.675 97.6319 38.835C96.8319 39.0484 96.4319 39.315 96.4319 39.635C96.4319 40.435 96.0852 40.835 95.3919 40.835C94.9119 40.835 94.5652 40.595 94.3519 40.115C94.2452 39.8484 94.0585 39.6884 93.7919 39.635C93.5252 39.5817 92.6719 39.555 91.2319 39.555C85.3652 39.555 81.5252 37.875 79.7119 34.515C79.2852 33.715 79.0719 32.595 79.0719 31.155C79.0719 29.8217 79.2852 28.6217 79.7119 27.555C81.1519 24.1417 83.2852 21.475 86.1119 19.555C88.1385 18.2217 90.1385 17.555 92.1119 17.555H92.8319L94.6719 17.635L94.5119 16.595C93.8719 11.6884 92.6719 7.31504 90.9119 3.47504C90.4319 2.35504 90.1919 1.58171 90.1919 1.15504Z" fill="#2B2D42"/>
<path d="M123.982 7.31504C123.129 6.88837 122.329 6.67504 121.582 6.67504C119.715 6.67504 117.795 7.71504 115.822 9.79504C115.075 10.5417 114.355 11.4217 113.662 12.435C113.022 13.395 112.702 14.0084 112.702 14.275C112.702 14.595 113.929 14.755 116.382 14.755C117.289 14.755 118.222 14.7017 119.182 14.595C121.689 14.2217 123.475 13.5017 124.542 12.435C125.342 11.635 125.742 10.8617 125.742 10.115C125.742 9.74171 125.609 9.28837 125.342 8.75504C124.915 8.06171 124.462 7.58171 123.982 7.31504ZM119.182 4.99504C119.822 4.78171 120.675 4.67504 121.742 4.67504C122.969 4.67504 123.875 4.80837 124.462 5.07504C126.702 6.03504 127.822 7.63504 127.822 9.87504C127.822 10.6217 127.662 11.395 127.342 12.195C126.702 13.5817 125.635 14.6484 124.142 15.395C122.275 16.2484 119.769 16.675 116.622 16.675C114.009 16.675 112.542 16.6484 112.222 16.595L111.342 16.515L110.702 18.435C110.169 19.9817 109.902 21.5284 109.902 23.075C109.902 27.2884 111.955 30.4884 116.062 32.675C119.209 34.275 123.795 35.1817 129.822 35.395L134.462 35.555C134.729 36.355 134.729 36.9417 134.462 37.315C134.249 37.5817 133.609 37.715 132.542 37.715C131.529 37.715 129.742 37.635 127.182 37.475C123.182 37.2084 120.009 36.675 117.662 35.875C115.315 35.0217 113.262 33.715 111.502 31.955C108.995 29.5017 107.742 26.4617 107.742 22.835C107.742 19.315 109.022 15.6884 111.582 11.955C114.142 8.27504 116.675 5.95504 119.182 4.99504Z" fill="#2B2D42"/>
<path d="M159.919 7.31504C159.066 6.88837 158.266 6.67504 157.519 6.67504C155.653 6.67504 153.733 7.71504 151.759 9.79504C151.013 10.5417 150.293 11.4217 149.599 12.435C148.959 13.395 148.639 14.0084 148.639 14.275C148.639 14.595 149.866 14.755 152.319 14.755C153.226 14.755 154.159 14.7017 155.119 14.595C157.626 14.2217 159.413 13.5017 160.479 12.435C161.279 11.635 161.679 10.8617 161.679 10.115C161.679 9.74171 161.546 9.28837 161.279 8.75504C160.853 8.06171 160.399 7.58171 159.919 7.31504ZM155.119 4.99504C155.759 4.78171 156.613 4.67504 157.679 4.67504C158.906 4.67504 159.813 4.80837 160.399 5.07504C162.639 6.03504 163.759 7.63504 163.759 9.87504C163.759 10.6217 163.599 11.395 163.279 12.195C162.639 13.5817 161.573 14.6484 160.079 15.395C158.213 16.2484 155.706 16.675 152.559 16.675C149.946 16.675 148.479 16.6484 148.159 16.595L147.279 16.515L146.639 18.435C146.106 19.9817 145.839 21.5284 145.839 23.075C145.839 27.2884 147.893 30.4884 151.999 32.675C155.146 34.275 159.733 35.1817 165.759 35.395L170.399 35.555C170.666 36.355 170.666 36.9417 170.399 37.315C170.186 37.5817 169.546 37.715 168.479 37.715C167.466 37.715 165.679 37.635 163.119 37.475C159.119 37.2084 155.946 36.675 153.599 35.875C151.253 35.0217 149.199 33.715 147.439 31.955C144.933 29.5017 143.679 26.4617 143.679 22.835C143.679 19.315 144.959 15.6884 147.519 11.955C150.079 8.27504 152.613 5.95504 155.119 4.99504Z" fill="#2B2D42"/>
<path d="M183.057 8.75504C183.11 8.70171 183.35 8.67504 183.777 8.67504C185.377 8.67504 189.164 9.26171 195.137 10.435L203.057 12.115C203.27 12.275 203.377 12.4617 203.377 12.675C203.377 13.1017 202.87 13.715 201.857 14.515C201.057 15.1017 199.244 16.8084 196.417 19.635C194.017 22.0884 191.564 24.2217 189.057 26.035C184.79 29.075 182.657 30.8617 182.657 31.395C182.657 31.555 183.164 31.7684 184.177 32.035C185.617 32.4617 187.484 32.675 189.777 32.675C194.097 32.675 199.217 32.035 205.137 30.755C206.31 30.4884 207.057 30.435 207.377 30.595C207.644 30.755 207.804 31.0217 207.857 31.395C207.91 31.7684 207.83 32.035 207.617 32.195C206.87 32.835 202.977 33.6084 195.937 34.515C194.39 34.7284 192.31 34.835 189.697 34.835C187.404 34.835 185.83 34.7284 184.977 34.515C183.537 34.195 182.31 33.7417 181.297 33.155C180.284 32.5684 179.777 32.035 179.777 31.555C179.777 30.6484 182.364 28.3017 187.537 24.515C189.937 22.8084 192.524 20.5684 195.297 17.795C198.017 15.075 199.377 13.6617 199.377 13.555C199.377 13.4484 197.484 13.0217 193.697 12.275C189.91 11.5284 187.457 11.1017 186.337 10.995C184.417 10.7284 183.377 10.5417 183.217 10.435C183.057 10.3284 182.95 10.0617 182.897 9.63504C182.844 9.20837 182.897 8.91504 183.057 8.75504Z" fill="#2B2D42"/>
<path d="M57.7581 80.155C58.3981 79.995 58.8515 80.2084 59.1181 80.795C59.1181 80.8484 59.1181 80.875 59.1181 80.875L59.1981 81.035C59.1981 81.2484 58.7448 82.3417 57.8381 84.315C55.7581 88.5817 52.9048 93.7817 49.2781 99.915C45.5981 106.102 42.8248 110.128 40.9581 111.995C38.9315 114.022 37.1181 115.035 35.5181 115.035H35.0381C33.4381 114.982 32.1848 114.075 31.2781 112.315C30.6381 111.035 30.1848 109.408 29.9181 107.435C29.6515 105.408 29.4648 101.888 29.3581 96.875C29.2515 93.1417 29.1181 91.275 28.9581 91.275C28.7448 91.275 28.3448 91.9684 27.7581 93.355C27.1715 94.6884 26.6915 95.915 26.3181 97.035C25.7315 98.8484 25.0381 101.408 24.2381 104.715C22.6915 111.062 21.0115 115.568 19.1981 118.235C18.6648 119.035 17.9981 119.862 17.1981 120.715C16.3981 121.515 15.8915 121.915 15.6781 121.915C15.4115 121.915 14.9315 121.568 14.2381 120.875C13.5448 120.182 13.0115 119.515 12.6381 118.875C12.3181 118.395 11.2781 115.648 9.51812 110.635C8.87812 108.608 7.99812 106.048 6.87812 102.955C5.75812 99.8617 4.82479 97.1417 4.07812 94.795C3.38479 92.4484 2.71812 89.835 2.07812 86.955C1.81145 85.4084 1.46479 84.2884 1.03812 83.595C0.664786 82.8484 0.478119 82.3684 0.478119 82.155C0.478119 81.835 0.664786 81.595 1.03812 81.435C1.41145 81.2217 1.75812 81.195 2.07812 81.355C2.93145 81.835 3.75812 84.075 4.55812 88.075C4.98479 89.8884 5.43812 91.675 5.91812 93.435C6.45145 95.195 6.93145 96.6884 7.35812 97.915C7.78479 99.1417 8.37145 100.875 9.11812 103.115C9.91812 105.302 10.5848 107.168 11.1181 108.715C13.4648 115.648 14.9315 119.115 15.5181 119.115C15.7315 119.115 16.1848 118.635 16.8781 117.675C17.6248 116.662 18.2915 115.595 18.8781 114.475C19.8381 112.608 21.0115 108.928 22.3981 103.435C24.1048 96.4484 26.0248 91.5417 28.1581 88.715C28.8515 87.8084 29.3315 87.355 29.5981 87.355C29.8115 87.355 30.0248 87.4617 30.2381 87.675C30.6648 88.1017 30.9581 88.955 31.1181 90.235C31.2781 91.515 31.4115 94.075 31.5181 97.915C31.7315 104.528 32.1315 108.688 32.7181 110.395C33.3581 112.048 34.2381 112.902 35.3581 112.955C35.9448 112.955 36.6115 112.742 37.3581 112.315C39.3848 111.195 42.2381 107.515 45.9181 101.275C49.7581 94.8217 52.9315 89.1417 55.4381 84.235C56.7181 81.6217 57.4915 80.2617 57.7581 80.155Z" fill="#2B2D42"/>
<path d="M68.2962 70.315C68.6162 69.8884 69.0696 69.835 69.6562 70.155C70.0296 70.315 70.2429 70.9017 70.2962 71.915C70.9896 79.435 71.6562 85.7284 72.2962 90.795C72.3496 91.1684 72.5096 91.4084 72.7762 91.515C73.2029 91.6217 75.3362 91.835 79.1762 92.155C79.8696 92.2084 82.6962 92.475 87.6562 92.955C92.6696 93.3817 95.9229 93.6484 97.4162 93.755L99.9762 93.915V92.475C99.9762 89.8084 99.5762 84.635 98.7762 76.955C98.5096 74.1817 98.3762 72.6084 98.3762 72.235C98.3762 71.755 98.4296 71.4617 98.5362 71.355C98.6429 71.195 98.8562 71.115 99.1762 71.115C99.6029 71.115 99.9229 71.3284 100.136 71.755C100.35 72.1817 100.536 73.0884 100.696 74.475C101.71 84.4484 102.216 92.2617 102.216 97.915V101.515C102.056 109.035 101.47 114.715 100.456 118.555C100.19 119.622 99.7096 120.022 99.0162 119.755C98.5896 119.595 98.3762 119.195 98.3762 118.555C98.3762 118.235 98.5096 117.328 98.7762 115.835C99.5229 111.782 99.9762 106.928 100.136 101.275L100.296 96.155C99.4962 95.995 98.2429 95.8884 96.5362 95.835C96.1096 95.835 95.3362 95.7817 94.2162 95.675C93.0962 95.5684 91.6296 95.435 89.8162 95.275C88.0029 95.115 86.5096 94.9817 85.3362 94.875C79.7362 94.395 76.1629 94.155 74.6162 94.155C73.7096 94.155 73.1496 94.2084 72.9362 94.315C72.8296 94.3684 72.7762 94.6084 72.7762 95.035C72.7762 95.7284 72.8029 96.3684 72.8562 96.955C73.2829 101.328 73.4962 106.342 73.4962 111.995C73.4962 116.208 73.3629 118.502 73.0962 118.875C72.8829 119.088 72.6162 119.195 72.2962 119.195C71.6029 119.195 71.2562 118.688 71.2562 117.675C71.2562 117.568 71.2562 117.382 71.2562 117.115C71.3096 116.795 71.3362 116.555 71.3362 116.395C71.3362 116.288 71.3362 115.995 71.3362 115.515C71.3896 115.035 71.4162 114.608 71.4162 114.235C71.4162 107.995 71.1762 102.288 70.6962 97.115C70.6429 96.635 70.5362 95.595 70.3762 93.995C70.2162 92.3417 70.0296 90.6084 69.8162 88.795C69.6562 86.9284 69.4962 85.2484 69.3362 83.755C68.5362 76.2884 68.1362 72.1017 68.1362 71.195C68.1362 70.715 68.1896 70.4217 68.2962 70.315Z" fill="#2B2D42"/>
<path d="M111.592 65.115C111.752 64.9017 111.912 64.795 112.072 64.795C112.179 64.795 112.899 65.035 114.232 65.515C115.192 65.8884 116.872 66.075 119.272 66.075C121.939 66.075 124.179 65.995 125.993 65.835C127.433 65.675 129.193 65.595 131.273 65.595C135.433 65.595 138.446 65.7817 140.312 66.155C143.566 66.795 145.193 67.515 145.193 68.315C145.193 68.5817 145.032 68.8484 144.712 69.115C144.552 69.275 144.366 69.355 144.152 69.355C143.832 69.355 143.033 69.1684 141.753 68.795C139.033 68.1017 136.072 67.755 132.872 67.755C130.739 67.755 129.032 67.8084 127.752 67.915C124.926 68.075 122.366 68.155 120.072 68.155C117.139 68.155 115.192 68.0217 114.232 67.755C113.486 67.5417 113.059 67.4884 112.952 67.595C112.899 67.6484 112.872 68.155 112.872 69.115C112.872 72.2617 112.979 74.4217 113.192 75.595C113.779 78.0484 114.152 83.035 114.312 90.555L114.552 97.675C114.659 97.7284 114.766 97.755 114.872 97.755C115.352 97.755 117.006 97.515 119.832 97.035L123.992 96.315L135.913 96.155C143.646 96.0484 147.699 95.9417 148.072 95.835C148.339 95.7284 148.659 95.835 149.033 96.155C149.299 96.3684 149.432 96.5284 149.432 96.635C149.432 96.6884 149.353 96.875 149.193 97.195C148.926 97.6217 148.259 97.8884 147.193 97.995C146.126 98.1017 143.166 98.155 138.312 98.155C129.033 98.2084 121.379 98.8217 115.352 99.995L114.472 100.155L114.312 107.515C114.259 109.062 114.179 111.622 114.072 115.195C114.019 118.715 113.992 120.928 113.992 121.835L113.832 128.635L116.552 128.475C118.259 128.422 120.232 128.075 122.472 127.435C125.086 126.688 127.566 126.155 129.913 125.835C132.259 125.568 135.886 125.328 140.792 125.115C143.832 125.008 146.899 124.848 149.992 124.635C151.806 124.528 152.793 124.475 152.952 124.475C153.593 124.475 153.992 124.528 154.152 124.635C154.366 124.795 154.473 125.062 154.473 125.435C154.473 125.968 154.099 126.315 153.352 126.475C152.659 126.635 150.712 126.795 147.512 126.955C138.766 127.382 133.486 127.675 131.673 127.835C129.859 128.048 127.352 128.555 124.152 129.355C120.846 130.208 118.392 130.635 116.792 130.635C115.512 130.635 114.659 130.555 114.232 130.395C113.859 130.288 113.672 130.048 113.672 129.675C113.672 129.462 113.379 129.328 112.792 129.275C112.206 129.275 111.886 129.195 111.832 129.035C111.779 128.928 111.752 128.102 111.752 126.555C111.752 123.302 111.806 120.262 111.912 117.435C112.126 110.768 112.232 106.048 112.232 103.275C112.232 101.248 112.099 100.102 111.832 99.835C111.299 99.3017 111.326 98.7684 111.912 98.235C112.179 97.9684 112.312 97.275 112.312 96.155C112.312 94.555 112.286 92.9817 112.232 91.435C112.126 85.7817 111.752 80.795 111.112 76.475C110.792 74.1284 110.632 72.075 110.632 70.315C110.632 67.6484 110.952 65.915 111.592 65.115Z" fill="#2B2D42"/>
<path d="M164.327 65.115C164.487 64.9017 164.647 64.795 164.807 64.795C164.914 64.795 165.634 65.035 166.967 65.515C167.927 65.8884 169.607 66.075 172.007 66.075C174.674 66.075 176.914 65.995 178.727 65.835C180.167 65.675 181.927 65.595 184.007 65.595C188.167 65.595 191.18 65.7817 193.047 66.155C196.3 66.795 197.927 67.515 197.927 68.315C197.927 68.5817 197.767 68.8484 197.447 69.115C197.287 69.275 197.1 69.355 196.887 69.355C196.567 69.355 195.767 69.1684 194.487 68.795C191.767 68.1017 188.807 67.755 185.607 67.755C183.474 67.755 181.767 67.8084 180.487 67.915C177.66 68.075 175.1 68.155 172.807 68.155C169.874 68.155 167.927 68.0217 166.967 67.755C166.22 67.5417 165.794 67.4884 165.687 67.595C165.634 67.6484 165.607 68.155 165.607 69.115C165.607 72.2617 165.714 74.4217 165.927 75.595C166.514 78.0484 166.887 83.035 167.047 90.555L167.287 97.675C167.394 97.7284 167.5 97.755 167.607 97.755C168.087 97.755 169.74 97.515 172.567 97.035L176.727 96.315L188.647 96.155C196.38 96.0484 200.434 95.9417 200.807 95.835C201.074 95.7284 201.394 95.835 201.767 96.155C202.034 96.3684 202.167 96.5284 202.167 96.635C202.167 96.6884 202.087 96.875 201.927 97.195C201.66 97.6217 200.994 97.8884 199.927 97.995C198.86 98.1017 195.9 98.155 191.047 98.155C181.767 98.2084 174.114 98.8217 168.087 99.995L167.207 100.155L167.047 107.515C166.994 109.062 166.914 111.622 166.807 115.195C166.754 118.715 166.727 120.928 166.727 121.835L166.567 128.635L169.287 128.475C170.994 128.422 172.967 128.075 175.207 127.435C177.82 126.688 180.3 126.155 182.647 125.835C184.994 125.568 188.62 125.328 193.527 125.115C196.567 125.008 199.634 124.848 202.727 124.635C204.54 124.528 205.527 124.475 205.687 124.475C206.327 124.475 206.727 124.528 206.887 124.635C207.1 124.795 207.207 125.062 207.207 125.435C207.207 125.968 206.834 126.315 206.087 126.475C205.394 126.635 203.447 126.795 200.247 126.955C191.5 127.382 186.22 127.675 184.407 127.835C182.594 128.048 180.087 128.555 176.887 129.355C173.58 130.208 171.127 130.635 169.527 130.635C168.247 130.635 167.394 130.555 166.967 130.395C166.594 130.288 166.407 130.048 166.407 129.675C166.407 129.462 166.114 129.328 165.527 129.275C164.94 129.275 164.62 129.195 164.567 129.035C164.514 128.928 164.487 128.102 164.487 126.555C164.487 123.302 164.54 120.262 164.647 117.435C164.86 110.768 164.967 106.048 164.967 103.275C164.967 101.248 164.834 100.102 164.567 99.835C164.034 99.3017 164.06 98.7684 164.647 98.235C164.914 97.9684 165.047 97.275 165.047 96.155C165.047 94.555 165.02 92.9817 164.967 91.435C164.86 85.7817 164.487 80.795 163.847 76.475C163.527 74.1284 163.367 72.075 163.367 70.315C163.367 67.6484 163.687 65.915 164.327 65.115Z" fill="#2B2D42"/>
<path d="M216.261 83.035C216.261 82.6617 216.395 82.395 216.661 82.235C216.928 82.075 217.141 81.995 217.301 81.995C217.515 81.995 217.941 82.4217 218.581 83.275C219.275 84.1284 219.835 84.955 220.261 85.755C221.115 87.5684 221.701 89.755 222.021 92.315C222.395 94.875 222.661 98.9284 222.821 104.475C222.821 105.275 222.821 106.102 222.821 106.955C222.875 107.755 222.901 108.475 222.901 109.115C222.955 109.702 222.981 110.262 222.981 110.795C223.035 111.275 223.061 111.648 223.061 111.915V112.315C223.328 112.368 223.701 112.395 224.181 112.395C230.155 112.395 234.501 112.235 237.221 111.915C237.861 111.862 239.115 111.648 240.981 111.275C241.835 111.115 242.448 111.035 242.821 111.035C243.141 111.035 243.355 111.088 243.461 111.195C243.728 111.408 243.835 111.702 243.781 112.075C243.728 112.395 243.568 112.662 243.301 112.875C242.608 113.248 240.341 113.675 236.501 114.155C234.261 114.368 230.981 114.475 226.661 114.475C223.195 114.475 221.381 114.395 221.221 114.235C220.955 113.968 220.795 111.355 220.741 106.395C220.581 99.995 220.341 95.4884 220.021 92.875C219.701 90.2617 219.088 88.075 218.181 86.315C217.701 85.4617 217.275 84.8484 216.901 84.475C216.475 84.0484 216.261 83.5684 216.261 83.035Z" fill="#2B2D42"/>
<path d="M276.906 69.115C278.186 68.9017 278.906 68.795 279.066 68.795C279.332 68.795 279.999 68.9017 281.066 69.115C283.572 69.8084 284.826 71.4617 284.826 74.075C284.826 76.155 284.452 77.195 283.706 77.195C282.959 77.195 282.586 76.795 282.586 75.995C282.586 75.9417 282.586 75.8084 282.586 75.595C282.639 75.3817 282.666 75.195 282.666 75.035C282.772 74.0217 282.719 73.275 282.506 72.795C282.132 71.7817 281.066 71.275 279.306 71.275C277.119 71.275 274.506 71.995 271.466 73.435C267.999 75.0884 265.386 76.795 263.626 78.555C261.812 80.3684 260.906 82.1284 260.906 83.835C260.906 86.0217 262.292 87.8084 265.066 89.195C266.506 89.9417 269.252 90.715 273.306 91.515C276.559 92.155 278.959 92.795 280.506 93.435C282.052 94.075 283.359 94.9817 284.426 96.155C285.226 97.0617 285.759 97.8617 286.026 98.555C286.346 99.2484 286.506 100.182 286.506 101.355C286.506 102.742 286.266 103.888 285.786 104.795C285.412 105.542 284.639 106.555 283.466 107.835C282.346 109.062 281.332 109.968 280.426 110.555C274.772 114.395 268.799 116.315 262.506 116.315C258.826 116.315 255.892 115.408 253.706 113.595C253.066 113.115 252.746 112.662 252.746 112.235C252.746 111.862 252.932 111.568 253.306 111.355C253.626 111.195 253.839 111.142 253.946 111.195C254.106 111.248 254.532 111.542 255.226 112.075C257.039 113.408 259.492 114.075 262.586 114.075C266.052 114.075 269.572 113.382 273.146 111.995C276.719 110.555 279.626 108.715 281.866 106.475C283.679 104.662 284.586 102.928 284.586 101.275C284.586 99.835 283.946 98.5017 282.666 97.275C280.906 95.6217 277.492 94.3684 272.426 93.515C270.239 93.0884 268.532 92.7417 267.306 92.475C265.066 91.835 263.146 90.795 261.546 89.355C259.946 87.915 259.012 86.4217 258.746 84.875C258.746 84.8217 258.719 84.7417 258.666 84.635C258.666 84.475 258.666 84.3417 258.666 84.235C258.666 82.8484 259.146 81.3284 260.106 79.675C261.492 77.435 263.866 75.3017 267.226 73.275C270.586 71.2484 273.812 69.8617 276.906 69.115Z" fill="#2B2D42"/>
</svg>
