<svg width="92" height="85" viewBox="0 0 92 85" fill="none" xmlns="http://www.w3.org/2000/svg">
<path d="M47.705 84.5598C45.105 84.6598 42.705 85.0598 40.305 84.8598C37.705 84.6598 35.205 84.2598 32.705 83.6598C28.505 82.6598 24.505 80.8598 20.805 78.5598C18.405 77.0598 16.005 75.6598 13.705 73.9598C7.90501 69.5598 4.50501 63.6598 2.00501 56.9598C0.305011 52.3598 0.00501117 47.7598 0.00501117 42.9598C-0.0949888 36.4598 1.30501 30.2598 3.90501 24.3598C4.90501 22.1598 6.20501 20.0598 7.60501 18.1598C9.80501 15.2598 12.005 12.2598 14.705 9.85981C17.305 7.45981 20.405 5.85981 23.805 4.95981C24.205 4.85981 24.605 4.85981 25.005 4.55981C28.205 1.85981 32.205 1.45981 36.005 0.259808C36.905 -0.0401922 37.905 -0.0401925 38.805 0.0598075C42.005 0.559808 45.205 0.159808 48.405 0.0598075C53.905 -0.0401925 59.105 0.959808 64.305 2.75981C68.705 4.25981 73.005 6.05981 77.005 8.35981C83.105 11.7598 87.205 16.7598 89.605 23.2598C90.905 26.8598 91.505 30.5598 91.705 34.4598C92.105 41.2598 91.305 47.8598 90.105 54.4598C89.605 57.2598 87.705 59.3598 86.405 61.7598C84.905 64.3598 83.005 66.7598 81.205 69.2598C76.005 76.8598 68.905 82.0598 59.405 83.5598C55.505 84.2598 51.505 84.8598 47.705 84.5598ZM83.205 30.8598C83.905 29.5598 85.005 28.3598 85.605 26.7598C83.605 27.5598 82.905 28.9598 83.205 30.8598C83.305 30.9598 83.505 31.0598 83.505 31.1598C83.805 31.7598 83.305 32.9598 84.305 33.0598C85.105 33.1598 85.405 32.2598 85.805 31.5598C85.905 31.4598 85.805 31.2598 85.805 31.0598C84.905 31.1598 84.105 30.5598 83.205 30.8598ZM41.205 8.45981C40.005 8.45981 39.105 8.35981 38.305 8.75981C36.805 9.55981 35.205 9.85981 33.605 10.1598C31.005 10.6598 28.905 12.2598 26.605 13.2598C23.105 14.7598 20.105 16.7598 17.305 19.3598C13.205 23.1598 10.105 27.5598 8.70501 33.0598C8.10501 35.6598 6.90501 38.0598 7.30501 40.9598C7.80501 44.5598 8.60501 48.1598 9.60501 51.6598C10.605 55.1598 12.605 58.1598 14.305 61.2598C15.405 63.2598 16.705 65.2598 18.905 66.3598C19.805 66.8598 20.305 66.7598 20.905 65.8598C22.305 63.8598 23.905 61.8598 25.505 59.9598C28.205 56.8598 30.905 53.6598 34.005 50.8598C34.805 50.1598 34.805 49.5598 34.105 48.7598C33.505 48.2598 33.305 47.5598 33.105 46.8598C32.505 44.4598 32.805 42.4598 34.105 40.2598C35.605 37.7598 37.405 35.7598 40.305 34.7598C40.905 34.5598 41.505 34.0598 42.105 33.8598C42.905 33.5598 43.205 32.9598 43.205 32.0598C43.205 30.3598 43.005 28.5598 42.905 26.8598C42.505 22.0598 42.005 17.2598 41.005 12.5598C40.605 11.2598 40.305 9.95981 41.205 8.45981ZM56.905 47.6598C58.005 48.0598 59.005 48.5598 60.105 48.8598C62.305 49.3598 64.405 50.0598 66.405 51.2598C69.905 53.3598 73.705 54.8598 77.105 57.1598C78.205 57.9598 78.805 57.6598 78.905 56.3598C79.005 54.8598 79.405 53.4598 79.605 51.9598C80.105 48.0598 80.305 44.2598 81.005 40.3598C81.305 38.3598 81.805 36.4598 81.405 34.4598C80.905 31.7598 80.105 29.1598 79.405 26.5598C78.805 24.4598 77.605 22.9598 76.005 21.4598C73.305 18.8598 70.205 16.7598 67.605 14.0598C66.105 12.4598 64.005 11.6598 61.805 11.3598C59.105 11.0598 56.405 10.5598 53.705 9.85981C51.405 9.25981 49.105 9.15981 46.805 9.05981C45.905 9.05981 45.405 9.25981 45.605 10.1598C46.105 12.5598 45.905 15.1598 46.305 17.5598C46.805 20.5598 47.505 23.5598 47.505 26.6598C47.505 27.8598 47.805 28.9598 46.505 29.9598C45.305 30.8598 46.105 32.8598 47.805 33.1598C51.105 33.7598 53.705 35.6598 56.205 37.7598C57.105 38.5598 57.505 39.5598 57.505 40.6598C57.505 42.7598 58.005 45.2598 56.905 47.6598ZM23.605 68.8598C25.605 70.4598 27.505 71.9598 29.905 72.6598C34.405 73.9598 38.905 74.8598 43.705 74.1598C45.705 73.8598 48.205 72.6598 50.005 74.9598C51.705 75.1598 53.405 75.6598 55.205 75.2598C57.205 74.8598 59.005 74.2598 61.005 73.6598C67.605 71.8598 72.405 67.7598 76.105 62.2598C76.505 61.6598 77.205 60.9598 77.005 59.5598C76.205 60.8598 75.405 59.5598 74.605 60.1598C74.605 62.3598 74.505 62.4598 72.605 61.9598C71.705 61.7598 70.905 61.3598 70.005 61.0598C65.205 59.2598 61.005 56.4598 56.505 54.0598C55.205 53.3598 54.005 52.7598 54.905 50.8598C55.305 49.8598 54.405 49.2598 53.305 49.7598C52.405 50.1598 51.505 50.6598 50.705 51.2598C49.905 52.0598 48.905 52.2598 47.605 52.1598C45.105 51.8598 42.505 52.4598 40.005 52.9598C39.405 53.0598 39.005 53.4598 38.605 53.8598C35.705 56.7598 32.705 59.5598 29.905 62.4598C27.705 64.4598 25.805 66.6598 23.605 68.8598ZM53.605 38.3598C51.605 36.1598 49.005 35.4598 46.405 35.0598C45.205 34.8598 44.105 35.4598 43.105 35.9598C42.805 36.0598 42.605 36.3598 42.705 36.7598C42.805 37.1598 43.205 37.4598 43.405 37.2598C44.805 35.8598 46.305 37.2598 47.805 36.8598C48.805 36.6598 49.405 37.1598 49.205 38.2598C49.105 38.6598 48.605 39.0598 49.005 39.5598C49.705 39.0598 50.205 38.1598 51.105 38.3598C51.805 38.5598 52.605 39.4598 53.605 38.3598ZM86.905 56.3598C88.605 53.6598 90.105 43.6598 89.105 40.4598C88.905 41.8598 87.605 42.2598 87.805 43.3598C88.305 46.4598 87.805 49.4598 86.905 52.4598C86.505 53.5598 86.305 54.8598 86.905 56.3598ZM28.705 5.85981C29.505 6.25981 30.005 5.65981 30.505 5.75981C31.705 6.05981 32.505 5.65981 33.205 4.65981C33.805 3.85981 34.805 3.65981 36.105 3.75981C38.405 4.05981 40.805 4.05981 42.905 2.95981C37.905 2.25981 33.105 2.65981 28.705 5.85981ZM16.905 11.0598C13.005 14.1598 12.405 15.8598 14.005 18.9598C15.105 18.4598 15.805 17.8598 15.505 16.5598C15.205 14.8598 15.505 13.2598 16.805 11.9598C17.105 11.7598 17.105 11.4598 16.905 11.0598ZM10.305 23.3598C12.405 21.8598 12.405 21.6598 10.705 17.8598C9.10501 19.5598 9.60501 21.4598 10.305 23.3598ZM83.505 42.8598C82.405 44.6598 82.705 46.4598 82.305 48.1598C82.205 48.4598 82.405 48.8598 82.805 48.9598C83.505 49.1598 84.205 49.1598 85.305 49.3598C84.005 47.9598 82.805 46.9598 84.305 45.2598C84.605 44.9598 84.205 43.6598 83.505 42.8598ZM25.305 74.7598C26.205 74.5598 26.605 75.2598 27.205 75.4598C27.605 75.5598 28.105 75.8598 28.305 75.3598C28.605 74.8598 28.105 74.6598 27.705 74.4598C26.305 73.8598 25.005 73.2598 23.805 72.3598C23.505 72.1598 23.205 72.0598 22.905 71.9598C22.705 71.9598 22.405 72.0598 22.305 72.2598C22.105 72.4598 22.305 72.7598 22.505 72.9598C22.905 73.3598 23.405 73.6598 23.805 74.0598C24.205 74.5598 24.205 76.0598 25.305 74.7598ZM64.505 79.7598C67.205 78.7598 69.405 77.7598 71.405 75.7598C70.405 75.4598 69.605 75.3598 69.105 76.1598C68.505 77.2598 67.605 77.5598 66.405 77.5598C65.305 77.5598 64.905 78.3598 64.505 79.7598ZM43.405 50.1598C45.905 49.9598 48.505 50.2598 50.805 48.9598C48.205 49.2598 45.605 48.4598 43.405 50.1598ZM4.20501 29.5598C3.50501 31.4598 5.00501 32.6598 5.50501 34.3598C7.20501 31.9598 7.10501 31.5598 4.20501 29.5598ZM7.30501 22.6598C6.00501 24.6598 6.90501 26.2598 7.50501 28.2598C8.30501 27.4598 8.70501 26.8598 8.10501 26.0598C7.60501 25.3598 7.50501 24.7598 7.90501 24.0598C8.10501 23.5598 7.90501 23.1598 7.30501 22.6598ZM9.90501 58.7598C8.60501 61.4598 8.80501 61.7598 12.005 62.8598C11.305 61.4598 10.705 60.2598 9.90501 58.7598ZM81.805 15.4598C81.505 16.1598 81.305 16.9598 81.805 17.3598C82.805 18.0598 83.505 18.8598 83.905 20.0598C84.005 20.3598 84.505 20.2598 84.805 20.0598C85.005 19.8598 85.105 19.6598 84.905 19.4598C83.905 18.1598 83.505 16.3598 81.805 15.4598ZM8.00501 64.7598C9.00501 66.3598 10.005 67.2598 11.005 68.4598C11.305 66.1598 11.305 66.1598 8.00501 64.7598ZM12.605 69.7598C13.405 70.8598 14.405 71.7598 15.405 72.5598C15.705 72.7598 16.205 73.3598 16.605 72.5598C16.805 72.1598 16.705 71.5598 16.005 71.4598C15.005 71.3598 14.405 70.8598 14.105 69.8598C13.805 68.7598 13.205 69.5598 12.605 69.7598ZM74.305 15.6598C74.805 15.6598 75.205 15.0598 75.305 14.1598C75.405 13.6598 75.305 13.1598 74.805 12.9598C74.405 12.8598 73.105 14.0598 73.205 14.5598C73.205 15.2598 73.805 15.4598 74.305 15.6598ZM79.005 15.9598C78.305 16.3598 77.705 16.6598 77.205 17.0598C76.505 17.4598 76.605 17.9598 77.205 18.4598C77.705 18.9598 78.205 18.9598 78.605 18.3598C79.005 17.6598 79.305 17.0598 79.005 15.9598ZM76.205 71.7598C77.105 70.7598 78.005 69.7598 79.205 68.4598C76.905 68.7598 76.305 70.0598 76.205 71.7598ZM50.805 82.1598C51.705 82.0598 52.705 82.2598 53.705 81.8598C53.105 81.1598 52.605 80.6598 52.005 80.0598C51.505 80.7598 50.905 81.1598 50.805 82.1598ZM2.30501 37.6598C2.10501 38.5598 1.80501 39.4598 2.20501 40.3598C4.00501 39.3598 4.00501 39.3598 2.30501 37.6598ZM54.805 39.9598C54.205 40.9598 53.605 42.0598 53.905 43.2598C54.505 42.2598 55.805 41.4598 54.805 39.9598ZM40.105 82.2598C39.705 81.4598 39.805 80.4598 38.705 80.6598C38.305 80.7598 37.805 81.3598 37.905 81.7598C38.305 82.7598 39.105 82.3598 40.105 82.2598ZM70.705 8.85981C71.505 9.45981 72.605 9.45981 73.305 10.0598C73.705 10.3598 74.005 10.1598 74.005 9.45981C72.905 9.45981 72.105 8.05981 70.705 8.85981ZM2.10501 43.3598C2.10501 44.5598 1.80501 45.3598 2.20501 46.2598C3.60501 44.6598 3.60501 44.6598 2.10501 43.3598ZM7.90501 55.0598C6.90501 55.2598 7.00501 56.1598 6.90501 56.8598C6.90501 57.1598 7.40501 57.1598 7.70501 57.0598C8.00501 57.0598 8.40501 57.0598 8.60501 56.5598C8.40501 56.1598 8.20501 55.6598 7.90501 55.0598ZM55.805 3.15981C54.905 3.05981 54.205 2.65981 53.605 3.15981C54.405 4.55981 54.405 4.55981 55.805 3.15981ZM4.10501 47.6598C5.90501 47.3598 6.00501 47.2598 5.40501 45.6598C4.70501 46.1598 4.40501 46.9598 4.10501 47.6598ZM24.605 8.05981C24.405 8.05981 24.305 8.15981 24.105 8.15981C24.105 9.05981 24.405 9.95981 23.805 10.7598C23.605 11.0598 23.605 11.4598 24.105 11.4598C24.405 11.4598 24.605 11.2598 24.605 11.0598C24.605 10.0598 24.605 9.05981 24.605 8.05981ZM81.605 60.0598C82.105 60.1598 82.105 59.7598 82.205 59.4598C82.305 58.8598 82.105 58.2598 81.405 58.1598C80.905 58.0598 80.705 58.3598 80.605 58.8598C80.605 59.5598 81.105 59.8598 81.605 60.0598ZM42.005 79.2598C43.005 78.3598 43.905 78.0598 44.305 77.1598C42.605 77.0598 42.605 77.0598 42.005 79.2598ZM84.605 39.2598C84.805 38.9598 85.605 39.1598 85.505 38.4598C85.405 37.9598 84.905 37.9598 84.505 37.9598C84.005 37.9598 83.805 38.2598 83.805 38.7598C83.905 39.2598 84.105 39.3598 84.605 39.2598ZM81.005 22.0598C81.605 21.8598 81.605 21.3598 81.505 20.8598C81.505 20.5598 81.205 20.1598 80.905 20.3598C80.405 20.5598 80.205 21.0598 80.305 21.5598C80.305 21.8598 80.605 22.0598 81.005 22.0598ZM31.605 76.6598C31.605 76.3598 31.505 75.9598 31.105 76.0598C30.505 76.1598 30.305 76.5598 30.305 77.0598C30.305 77.3598 30.205 77.8598 30.605 77.8598C31.205 77.7598 31.505 77.2598 31.605 76.6598ZM4.30501 56.7598C4.90501 56.2598 5.20501 55.7598 4.60501 55.1598C4.40501 54.9598 3.90501 54.8598 3.80501 55.1598C3.40501 55.7598 4.00501 56.2598 4.30501 56.7598ZM67.505 8.55981C67.205 8.75981 66.705 8.85981 66.805 9.55981C66.805 9.85981 67.205 10.0598 67.505 10.1598C68.305 10.2598 68.205 9.65981 68.205 9.25981C68.205 8.85981 68.105 8.45981 67.505 8.55981ZM78.205 12.2598C77.805 12.2598 77.605 12.4598 77.605 12.7598C77.605 13.1598 77.705 13.5598 78.205 13.5598C78.505 13.5598 79.105 13.7598 79.105 13.1598C79.105 12.5598 78.605 12.4598 78.205 12.2598ZM80.805 65.3598C80.005 65.7598 79.605 66.3598 79.405 67.5598C80.305 66.7598 80.705 66.2598 80.805 65.3598ZM56.305 81.3598C56.305 81.0598 56.205 80.8598 55.905 80.8598C55.405 80.7598 55.205 81.1598 55.005 81.4598C54.805 81.7598 55.105 81.8598 55.305 81.8598C55.705 81.9598 56.105 81.8598 56.305 81.3598ZM78.505 63.1598C77.605 63.9598 77.205 64.4598 77.305 65.2598C77.405 65.2598 77.405 65.2598 77.505 65.2598C78.005 64.7598 78.305 64.2598 78.505 63.1598ZM73.105 74.4598C73.505 74.2598 73.805 74.1598 73.905 74.0598C74.105 73.7598 75.005 73.4598 74.105 73.0598C73.505 72.7598 73.205 73.4598 73.105 74.4598ZM48.505 3.25981C48.705 3.35981 48.805 3.35981 48.905 3.35981C49.405 3.35981 49.905 3.65981 50.205 3.05981C50.305 2.85981 50.305 2.75981 50.105 2.65981C49.605 2.45981 49.205 2.75981 48.805 2.95981C48.705 3.05981 48.705 3.15981 48.505 3.25981ZM3.90501 51.7598C3.80501 51.4598 3.60501 51.4598 3.40501 51.4598C3.00501 51.5598 2.70501 51.8598 2.80501 52.3598C2.90501 52.5598 3.10501 52.8598 3.30501 52.6598C3.60501 52.5598 3.80501 52.1598 3.90501 51.7598ZM34.705 77.1598C34.705 76.8598 34.605 76.6598 34.305 76.7598C34.105 76.8598 33.905 77.1598 33.705 77.4598C33.605 77.6598 33.705 77.9598 33.905 77.9598C34.405 77.9598 34.605 77.5598 34.705 77.1598ZM61.005 80.2598C60.905 80.0598 60.805 79.8598 60.505 79.9598C60.105 80.0598 59.805 80.3598 59.805 80.7598C59.805 81.2598 60.305 81.0598 60.505 80.9598C60.905 80.8598 61.105 80.6598 61.005 80.2598ZM85.205 35.5598C85.305 35.2598 85.205 35.1598 84.905 35.0598C84.605 34.9598 84.205 34.9598 84.205 35.4598C84.205 35.7598 84.105 36.1598 84.505 36.1598C84.805 36.1598 85.105 35.9598 85.205 35.5598ZM62.105 4.95981C61.705 4.95981 61.605 5.25981 61.705 5.55981C61.705 5.65981 62.105 5.85981 62.305 5.85981C62.605 5.85981 63.005 5.75981 62.905 5.35981C62.805 4.95981 62.405 5.05981 62.105 4.95981ZM83.505 24.4598C83.205 24.4598 83.205 24.3598 83.105 24.4598C82.705 24.6598 82.205 24.7598 82.105 25.3598C82.105 25.4598 82.205 25.7598 82.305 25.7598C82.705 25.7598 83.005 25.4598 83.205 25.0598C83.305 24.9598 83.405 24.7598 83.505 24.4598ZM84.505 56.3598C84.405 55.9598 84.205 55.7598 83.905 55.6598C83.705 55.5598 83.305 55.6598 83.305 55.8598C83.205 56.2598 83.505 56.4598 83.905 56.4598C84.105 56.4598 84.305 56.3598 84.505 56.3598ZM18.405 14.8598C18.605 14.6598 18.905 14.4598 18.805 14.0598C18.705 13.8598 18.505 13.6598 18.305 13.8598C18.105 14.0598 18.105 14.3598 18.005 14.6598C17.905 14.7598 18.205 14.8598 18.405 14.8598ZM6.50501 60.4598C6.10501 60.4598 6.00501 60.7598 6.00501 61.1598C6.00501 61.2598 6.10501 61.5598 6.20501 61.5598C6.60501 61.6598 6.70501 61.2598 6.80501 60.9598C6.90501 60.6598 6.80501 60.4598 6.50501 60.4598ZM37.705 78.2598C38.505 78.1598 38.805 77.8598 39.005 77.3598C39.005 77.2598 38.805 77.0598 38.705 77.0598C38.005 76.9598 37.905 77.5598 37.705 78.2598ZM64.605 75.4598C64.705 75.2598 64.405 75.1598 64.205 75.1598C63.805 75.1598 63.705 75.4598 63.605 75.7598C63.605 75.9598 63.705 76.1598 63.805 76.3598C64.205 76.2598 64.405 75.9598 64.605 75.4598Z" fill="black"/>
</svg>
